%TF.GenerationSoftware,KiCad,Pcbnew,8.0.0*%
%TF.CreationDate,2025-01-05T23:10:09+05:30*%
%TF.ProjectId,sunday_pcb,73756e64-6179-45f7-9063-622e6b696361,rev?*%
%TF.SameCoordinates,Original*%
%TF.FileFunction,Legend,Bot*%
%TF.FilePolarity,Positive*%
%FSLAX46Y46*%
G04 Gerber Fmt 4.6, Leading zero omitted, Abs format (unit mm)*
G04 Created by KiCad (PCBNEW 8.0.0) date 2025-01-05 23:10:09*
%MOMM*%
%LPD*%
G01*
G04 APERTURE LIST*
%ADD10C,0.150000*%
%ADD11C,0.120000*%
G04 APERTURE END LIST*
D10*
X168605057Y-110373445D02*
X168557438Y-110278207D01*
X168557438Y-110278207D02*
X168462200Y-110182969D01*
X168462200Y-110182969D02*
X168319342Y-110040112D01*
X168319342Y-110040112D02*
X168271723Y-109944874D01*
X168271723Y-109944874D02*
X168271723Y-109849636D01*
X168509819Y-109897255D02*
X168462200Y-109802017D01*
X168462200Y-109802017D02*
X168366961Y-109706779D01*
X168366961Y-109706779D02*
X168176485Y-109659160D01*
X168176485Y-109659160D02*
X167843152Y-109659160D01*
X167843152Y-109659160D02*
X167652676Y-109706779D01*
X167652676Y-109706779D02*
X167557438Y-109802017D01*
X167557438Y-109802017D02*
X167509819Y-109897255D01*
X167509819Y-109897255D02*
X167509819Y-110087731D01*
X167509819Y-110087731D02*
X167557438Y-110182969D01*
X167557438Y-110182969D02*
X167652676Y-110278207D01*
X167652676Y-110278207D02*
X167843152Y-110325826D01*
X167843152Y-110325826D02*
X168176485Y-110325826D01*
X168176485Y-110325826D02*
X168366961Y-110278207D01*
X168366961Y-110278207D02*
X168462200Y-110182969D01*
X168462200Y-110182969D02*
X168509819Y-110087731D01*
X168509819Y-110087731D02*
X168509819Y-109897255D01*
X167509819Y-111182969D02*
X167509819Y-110992493D01*
X167509819Y-110992493D02*
X167557438Y-110897255D01*
X167557438Y-110897255D02*
X167605057Y-110849636D01*
X167605057Y-110849636D02*
X167747914Y-110754398D01*
X167747914Y-110754398D02*
X167938390Y-110706779D01*
X167938390Y-110706779D02*
X168319342Y-110706779D01*
X168319342Y-110706779D02*
X168414580Y-110754398D01*
X168414580Y-110754398D02*
X168462200Y-110802017D01*
X168462200Y-110802017D02*
X168509819Y-110897255D01*
X168509819Y-110897255D02*
X168509819Y-111087731D01*
X168509819Y-111087731D02*
X168462200Y-111182969D01*
X168462200Y-111182969D02*
X168414580Y-111230588D01*
X168414580Y-111230588D02*
X168319342Y-111278207D01*
X168319342Y-111278207D02*
X168081247Y-111278207D01*
X168081247Y-111278207D02*
X167986009Y-111230588D01*
X167986009Y-111230588D02*
X167938390Y-111182969D01*
X167938390Y-111182969D02*
X167890771Y-111087731D01*
X167890771Y-111087731D02*
X167890771Y-110897255D01*
X167890771Y-110897255D02*
X167938390Y-110802017D01*
X167938390Y-110802017D02*
X167986009Y-110754398D01*
X167986009Y-110754398D02*
X168081247Y-110706779D01*
X145105057Y-96373445D02*
X145057438Y-96278207D01*
X145057438Y-96278207D02*
X144962200Y-96182969D01*
X144962200Y-96182969D02*
X144819342Y-96040112D01*
X144819342Y-96040112D02*
X144771723Y-95944874D01*
X144771723Y-95944874D02*
X144771723Y-95849636D01*
X145009819Y-95897255D02*
X144962200Y-95802017D01*
X144962200Y-95802017D02*
X144866961Y-95706779D01*
X144866961Y-95706779D02*
X144676485Y-95659160D01*
X144676485Y-95659160D02*
X144343152Y-95659160D01*
X144343152Y-95659160D02*
X144152676Y-95706779D01*
X144152676Y-95706779D02*
X144057438Y-95802017D01*
X144057438Y-95802017D02*
X144009819Y-95897255D01*
X144009819Y-95897255D02*
X144009819Y-96087731D01*
X144009819Y-96087731D02*
X144057438Y-96182969D01*
X144057438Y-96182969D02*
X144152676Y-96278207D01*
X144152676Y-96278207D02*
X144343152Y-96325826D01*
X144343152Y-96325826D02*
X144676485Y-96325826D01*
X144676485Y-96325826D02*
X144866961Y-96278207D01*
X144866961Y-96278207D02*
X144962200Y-96182969D01*
X144962200Y-96182969D02*
X145009819Y-96087731D01*
X145009819Y-96087731D02*
X145009819Y-95897255D01*
X144009819Y-96659160D02*
X144009819Y-97278207D01*
X144009819Y-97278207D02*
X144390771Y-96944874D01*
X144390771Y-96944874D02*
X144390771Y-97087731D01*
X144390771Y-97087731D02*
X144438390Y-97182969D01*
X144438390Y-97182969D02*
X144486009Y-97230588D01*
X144486009Y-97230588D02*
X144581247Y-97278207D01*
X144581247Y-97278207D02*
X144819342Y-97278207D01*
X144819342Y-97278207D02*
X144914580Y-97230588D01*
X144914580Y-97230588D02*
X144962200Y-97182969D01*
X144962200Y-97182969D02*
X145009819Y-97087731D01*
X145009819Y-97087731D02*
X145009819Y-96802017D01*
X145009819Y-96802017D02*
X144962200Y-96706779D01*
X144962200Y-96706779D02*
X144914580Y-96659160D01*
X154605057Y-110373445D02*
X154557438Y-110278207D01*
X154557438Y-110278207D02*
X154462200Y-110182969D01*
X154462200Y-110182969D02*
X154319342Y-110040112D01*
X154319342Y-110040112D02*
X154271723Y-109944874D01*
X154271723Y-109944874D02*
X154271723Y-109849636D01*
X154509819Y-109897255D02*
X154462200Y-109802017D01*
X154462200Y-109802017D02*
X154366961Y-109706779D01*
X154366961Y-109706779D02*
X154176485Y-109659160D01*
X154176485Y-109659160D02*
X153843152Y-109659160D01*
X153843152Y-109659160D02*
X153652676Y-109706779D01*
X153652676Y-109706779D02*
X153557438Y-109802017D01*
X153557438Y-109802017D02*
X153509819Y-109897255D01*
X153509819Y-109897255D02*
X153509819Y-110087731D01*
X153509819Y-110087731D02*
X153557438Y-110182969D01*
X153557438Y-110182969D02*
X153652676Y-110278207D01*
X153652676Y-110278207D02*
X153843152Y-110325826D01*
X153843152Y-110325826D02*
X154176485Y-110325826D01*
X154176485Y-110325826D02*
X154366961Y-110278207D01*
X154366961Y-110278207D02*
X154462200Y-110182969D01*
X154462200Y-110182969D02*
X154509819Y-110087731D01*
X154509819Y-110087731D02*
X154509819Y-109897255D01*
X153843152Y-111182969D02*
X154509819Y-111182969D01*
X153462200Y-110944874D02*
X154176485Y-110706779D01*
X154176485Y-110706779D02*
X154176485Y-111325826D01*
X149690057Y-96274761D02*
X149642438Y-96179523D01*
X149642438Y-96179523D02*
X149547200Y-96084285D01*
X149547200Y-96084285D02*
X149404342Y-95941428D01*
X149404342Y-95941428D02*
X149356723Y-95846190D01*
X149356723Y-95846190D02*
X149356723Y-95750952D01*
X149594819Y-95798571D02*
X149547200Y-95703333D01*
X149547200Y-95703333D02*
X149451961Y-95608095D01*
X149451961Y-95608095D02*
X149261485Y-95560476D01*
X149261485Y-95560476D02*
X148928152Y-95560476D01*
X148928152Y-95560476D02*
X148737676Y-95608095D01*
X148737676Y-95608095D02*
X148642438Y-95703333D01*
X148642438Y-95703333D02*
X148594819Y-95798571D01*
X148594819Y-95798571D02*
X148594819Y-95989047D01*
X148594819Y-95989047D02*
X148642438Y-96084285D01*
X148642438Y-96084285D02*
X148737676Y-96179523D01*
X148737676Y-96179523D02*
X148928152Y-96227142D01*
X148928152Y-96227142D02*
X149261485Y-96227142D01*
X149261485Y-96227142D02*
X149451961Y-96179523D01*
X149451961Y-96179523D02*
X149547200Y-96084285D01*
X149547200Y-96084285D02*
X149594819Y-95989047D01*
X149594819Y-95989047D02*
X149594819Y-95798571D01*
X148690057Y-96608095D02*
X148642438Y-96655714D01*
X148642438Y-96655714D02*
X148594819Y-96750952D01*
X148594819Y-96750952D02*
X148594819Y-96989047D01*
X148594819Y-96989047D02*
X148642438Y-97084285D01*
X148642438Y-97084285D02*
X148690057Y-97131904D01*
X148690057Y-97131904D02*
X148785295Y-97179523D01*
X148785295Y-97179523D02*
X148880533Y-97179523D01*
X148880533Y-97179523D02*
X149023390Y-97131904D01*
X149023390Y-97131904D02*
X149594819Y-96560476D01*
X149594819Y-96560476D02*
X149594819Y-97179523D01*
X160700057Y-96274761D02*
X160652438Y-96179523D01*
X160652438Y-96179523D02*
X160557200Y-96084285D01*
X160557200Y-96084285D02*
X160414342Y-95941428D01*
X160414342Y-95941428D02*
X160366723Y-95846190D01*
X160366723Y-95846190D02*
X160366723Y-95750952D01*
X160604819Y-95798571D02*
X160557200Y-95703333D01*
X160557200Y-95703333D02*
X160461961Y-95608095D01*
X160461961Y-95608095D02*
X160271485Y-95560476D01*
X160271485Y-95560476D02*
X159938152Y-95560476D01*
X159938152Y-95560476D02*
X159747676Y-95608095D01*
X159747676Y-95608095D02*
X159652438Y-95703333D01*
X159652438Y-95703333D02*
X159604819Y-95798571D01*
X159604819Y-95798571D02*
X159604819Y-95989047D01*
X159604819Y-95989047D02*
X159652438Y-96084285D01*
X159652438Y-96084285D02*
X159747676Y-96179523D01*
X159747676Y-96179523D02*
X159938152Y-96227142D01*
X159938152Y-96227142D02*
X160271485Y-96227142D01*
X160271485Y-96227142D02*
X160461961Y-96179523D01*
X160461961Y-96179523D02*
X160557200Y-96084285D01*
X160557200Y-96084285D02*
X160604819Y-95989047D01*
X160604819Y-95989047D02*
X160604819Y-95798571D01*
X160604819Y-97179523D02*
X160604819Y-96608095D01*
X160604819Y-96893809D02*
X159604819Y-96893809D01*
X159604819Y-96893809D02*
X159747676Y-96798571D01*
X159747676Y-96798571D02*
X159842914Y-96703333D01*
X159842914Y-96703333D02*
X159890533Y-96608095D01*
X174190057Y-110774761D02*
X174142438Y-110679523D01*
X174142438Y-110679523D02*
X174047200Y-110584285D01*
X174047200Y-110584285D02*
X173904342Y-110441428D01*
X173904342Y-110441428D02*
X173856723Y-110346190D01*
X173856723Y-110346190D02*
X173856723Y-110250952D01*
X174094819Y-110298571D02*
X174047200Y-110203333D01*
X174047200Y-110203333D02*
X173951961Y-110108095D01*
X173951961Y-110108095D02*
X173761485Y-110060476D01*
X173761485Y-110060476D02*
X173428152Y-110060476D01*
X173428152Y-110060476D02*
X173237676Y-110108095D01*
X173237676Y-110108095D02*
X173142438Y-110203333D01*
X173142438Y-110203333D02*
X173094819Y-110298571D01*
X173094819Y-110298571D02*
X173094819Y-110489047D01*
X173094819Y-110489047D02*
X173142438Y-110584285D01*
X173142438Y-110584285D02*
X173237676Y-110679523D01*
X173237676Y-110679523D02*
X173428152Y-110727142D01*
X173428152Y-110727142D02*
X173761485Y-110727142D01*
X173761485Y-110727142D02*
X173951961Y-110679523D01*
X173951961Y-110679523D02*
X174047200Y-110584285D01*
X174047200Y-110584285D02*
X174094819Y-110489047D01*
X174094819Y-110489047D02*
X174094819Y-110298571D01*
X173094819Y-111631904D02*
X173094819Y-111155714D01*
X173094819Y-111155714D02*
X173571009Y-111108095D01*
X173571009Y-111108095D02*
X173523390Y-111155714D01*
X173523390Y-111155714D02*
X173475771Y-111250952D01*
X173475771Y-111250952D02*
X173475771Y-111489047D01*
X173475771Y-111489047D02*
X173523390Y-111584285D01*
X173523390Y-111584285D02*
X173571009Y-111631904D01*
X173571009Y-111631904D02*
X173666247Y-111679523D01*
X173666247Y-111679523D02*
X173904342Y-111679523D01*
X173904342Y-111679523D02*
X173999580Y-111631904D01*
X173999580Y-111631904D02*
X174047200Y-111584285D01*
X174047200Y-111584285D02*
X174094819Y-111489047D01*
X174094819Y-111489047D02*
X174094819Y-111250952D01*
X174094819Y-111250952D02*
X174047200Y-111155714D01*
X174047200Y-111155714D02*
X173999580Y-111108095D01*
D11*
%TO.C,Q4*%
X150430000Y-108570000D02*
X150430000Y-112170000D01*
X150441522Y-108531522D02*
G75*
G02*
X154880000Y-110370000I1838478J-1838478D01*
G01*
X154880000Y-110370000D02*
G75*
G02*
X150441522Y-112208478I-2600000J0D01*
G01*
%TO.C,Q2*%
X145790000Y-94570000D02*
X145790000Y-98170000D01*
X145801522Y-94531522D02*
G75*
G02*
X150240000Y-96370000I1838478J-1838478D01*
G01*
X150240000Y-96370000D02*
G75*
G02*
X145801522Y-98208478I-2600000J0D01*
G01*
%TO.C,Q3*%
X140930000Y-94570000D02*
X140930000Y-98170000D01*
X140941522Y-94531522D02*
G75*
G02*
X145380000Y-96370000I1838478J-1838478D01*
G01*
X145380000Y-96370000D02*
G75*
G02*
X140941522Y-98208478I-2600000J0D01*
G01*
%TO.C,Q1*%
X156650000Y-94570000D02*
X156650000Y-98170000D01*
X156661522Y-94531522D02*
G75*
G02*
X161100000Y-96370000I1838478J-1838478D01*
G01*
X161100000Y-96370000D02*
G75*
G02*
X156661522Y-98208478I-2600000J0D01*
G01*
%TO.C,Q5*%
X170380000Y-108840000D02*
X170380000Y-112440000D01*
X170391522Y-108801522D02*
G75*
G02*
X174830000Y-110640000I1838478J-1838478D01*
G01*
X174830000Y-110640000D02*
G75*
G02*
X170391522Y-112478478I-2600000J0D01*
G01*
%TO.C,Q6*%
X164520000Y-108800000D02*
X164520000Y-112400000D01*
X164531522Y-108761522D02*
G75*
G02*
X168970000Y-110600000I1838478J-1838478D01*
G01*
X168970000Y-110600000D02*
G75*
G02*
X164531522Y-112438478I-2600000J0D01*
G01*
%TD*%
M02*
