%TF.GenerationSoftware,KiCad,Pcbnew,8.0.0*%
%TF.CreationDate,2025-01-05T23:08:37+05:30*%
%TF.ProjectId,sunday_pcb,73756e64-6179-45f7-9063-622e6b696361,rev?*%
%TF.SameCoordinates,Original*%
%TF.FileFunction,Legend,Top*%
%TF.FilePolarity,Positive*%
%FSLAX46Y46*%
G04 Gerber Fmt 4.6, Leading zero omitted, Abs format (unit mm)*
G04 Created by KiCad (PCBNEW 8.0.0) date 2025-01-05 23:08:37*
%MOMM*%
%LPD*%
G01*
G04 APERTURE LIST*
%ADD10C,0.100000*%
%ADD11C,0.150000*%
%ADD12C,0.120000*%
G04 APERTURE END LIST*
D10*
X161015312Y-122242419D02*
X160681979Y-121766228D01*
X160443884Y-122242419D02*
X160443884Y-121242419D01*
X160443884Y-121242419D02*
X160824836Y-121242419D01*
X160824836Y-121242419D02*
X160920074Y-121290038D01*
X160920074Y-121290038D02*
X160967693Y-121337657D01*
X160967693Y-121337657D02*
X161015312Y-121432895D01*
X161015312Y-121432895D02*
X161015312Y-121575752D01*
X161015312Y-121575752D02*
X160967693Y-121670990D01*
X160967693Y-121670990D02*
X160920074Y-121718609D01*
X160920074Y-121718609D02*
X160824836Y-121766228D01*
X160824836Y-121766228D02*
X160443884Y-121766228D01*
X161872455Y-122242419D02*
X161872455Y-121718609D01*
X161872455Y-121718609D02*
X161824836Y-121623371D01*
X161824836Y-121623371D02*
X161729598Y-121575752D01*
X161729598Y-121575752D02*
X161539122Y-121575752D01*
X161539122Y-121575752D02*
X161443884Y-121623371D01*
X161872455Y-122194800D02*
X161777217Y-122242419D01*
X161777217Y-122242419D02*
X161539122Y-122242419D01*
X161539122Y-122242419D02*
X161443884Y-122194800D01*
X161443884Y-122194800D02*
X161396265Y-122099561D01*
X161396265Y-122099561D02*
X161396265Y-122004323D01*
X161396265Y-122004323D02*
X161443884Y-121909085D01*
X161443884Y-121909085D02*
X161539122Y-121861466D01*
X161539122Y-121861466D02*
X161777217Y-121861466D01*
X161777217Y-121861466D02*
X161872455Y-121813847D01*
X162348646Y-122242419D02*
X162348646Y-121575752D01*
X162348646Y-121242419D02*
X162301027Y-121290038D01*
X162301027Y-121290038D02*
X162348646Y-121337657D01*
X162348646Y-121337657D02*
X162396265Y-121290038D01*
X162396265Y-121290038D02*
X162348646Y-121242419D01*
X162348646Y-121242419D02*
X162348646Y-121337657D01*
X162824836Y-121575752D02*
X162824836Y-122242419D01*
X162824836Y-121670990D02*
X162872455Y-121623371D01*
X162872455Y-121623371D02*
X162967693Y-121575752D01*
X162967693Y-121575752D02*
X163110550Y-121575752D01*
X163110550Y-121575752D02*
X163205788Y-121623371D01*
X163205788Y-121623371D02*
X163253407Y-121718609D01*
X163253407Y-121718609D02*
X163253407Y-122242419D01*
D11*
X159976779Y-80739819D02*
X159976779Y-79739819D01*
X159976779Y-79739819D02*
X160548207Y-80739819D01*
X160548207Y-80739819D02*
X160548207Y-79739819D01*
X161024398Y-80739819D02*
X161024398Y-79739819D01*
X161024398Y-79739819D02*
X161405350Y-79739819D01*
X161405350Y-79739819D02*
X161500588Y-79787438D01*
X161500588Y-79787438D02*
X161548207Y-79835057D01*
X161548207Y-79835057D02*
X161595826Y-79930295D01*
X161595826Y-79930295D02*
X161595826Y-80073152D01*
X161595826Y-80073152D02*
X161548207Y-80168390D01*
X161548207Y-80168390D02*
X161500588Y-80216009D01*
X161500588Y-80216009D02*
X161405350Y-80263628D01*
X161405350Y-80263628D02*
X161024398Y-80263628D01*
X162024398Y-80739819D02*
X162024398Y-79739819D01*
X162595826Y-80739819D02*
X162167255Y-80168390D01*
X162595826Y-79739819D02*
X162024398Y-80311247D01*
X163738684Y-80692200D02*
X163881541Y-80739819D01*
X163881541Y-80739819D02*
X164119636Y-80739819D01*
X164119636Y-80739819D02*
X164214874Y-80692200D01*
X164214874Y-80692200D02*
X164262493Y-80644580D01*
X164262493Y-80644580D02*
X164310112Y-80549342D01*
X164310112Y-80549342D02*
X164310112Y-80454104D01*
X164310112Y-80454104D02*
X164262493Y-80358866D01*
X164262493Y-80358866D02*
X164214874Y-80311247D01*
X164214874Y-80311247D02*
X164119636Y-80263628D01*
X164119636Y-80263628D02*
X163929160Y-80216009D01*
X163929160Y-80216009D02*
X163833922Y-80168390D01*
X163833922Y-80168390D02*
X163786303Y-80120771D01*
X163786303Y-80120771D02*
X163738684Y-80025533D01*
X163738684Y-80025533D02*
X163738684Y-79930295D01*
X163738684Y-79930295D02*
X163786303Y-79835057D01*
X163786303Y-79835057D02*
X163833922Y-79787438D01*
X163833922Y-79787438D02*
X163929160Y-79739819D01*
X163929160Y-79739819D02*
X164167255Y-79739819D01*
X164167255Y-79739819D02*
X164310112Y-79787438D01*
X164738684Y-80216009D02*
X165072017Y-80216009D01*
X165214874Y-80739819D02*
X164738684Y-80739819D01*
X164738684Y-80739819D02*
X164738684Y-79739819D01*
X164738684Y-79739819D02*
X165214874Y-79739819D01*
X165643446Y-80739819D02*
X165643446Y-79739819D01*
X165643446Y-79739819D02*
X166214874Y-80739819D01*
X166214874Y-80739819D02*
X166214874Y-79739819D01*
X166643446Y-80692200D02*
X166786303Y-80739819D01*
X166786303Y-80739819D02*
X167024398Y-80739819D01*
X167024398Y-80739819D02*
X167119636Y-80692200D01*
X167119636Y-80692200D02*
X167167255Y-80644580D01*
X167167255Y-80644580D02*
X167214874Y-80549342D01*
X167214874Y-80549342D02*
X167214874Y-80454104D01*
X167214874Y-80454104D02*
X167167255Y-80358866D01*
X167167255Y-80358866D02*
X167119636Y-80311247D01*
X167119636Y-80311247D02*
X167024398Y-80263628D01*
X167024398Y-80263628D02*
X166833922Y-80216009D01*
X166833922Y-80216009D02*
X166738684Y-80168390D01*
X166738684Y-80168390D02*
X166691065Y-80120771D01*
X166691065Y-80120771D02*
X166643446Y-80025533D01*
X166643446Y-80025533D02*
X166643446Y-79930295D01*
X166643446Y-79930295D02*
X166691065Y-79835057D01*
X166691065Y-79835057D02*
X166738684Y-79787438D01*
X166738684Y-79787438D02*
X166833922Y-79739819D01*
X166833922Y-79739819D02*
X167072017Y-79739819D01*
X167072017Y-79739819D02*
X167214874Y-79787438D01*
X167833922Y-79739819D02*
X168024398Y-79739819D01*
X168024398Y-79739819D02*
X168119636Y-79787438D01*
X168119636Y-79787438D02*
X168214874Y-79882676D01*
X168214874Y-79882676D02*
X168262493Y-80073152D01*
X168262493Y-80073152D02*
X168262493Y-80406485D01*
X168262493Y-80406485D02*
X168214874Y-80596961D01*
X168214874Y-80596961D02*
X168119636Y-80692200D01*
X168119636Y-80692200D02*
X168024398Y-80739819D01*
X168024398Y-80739819D02*
X167833922Y-80739819D01*
X167833922Y-80739819D02*
X167738684Y-80692200D01*
X167738684Y-80692200D02*
X167643446Y-80596961D01*
X167643446Y-80596961D02*
X167595827Y-80406485D01*
X167595827Y-80406485D02*
X167595827Y-80073152D01*
X167595827Y-80073152D02*
X167643446Y-79882676D01*
X167643446Y-79882676D02*
X167738684Y-79787438D01*
X167738684Y-79787438D02*
X167833922Y-79739819D01*
X169262493Y-80739819D02*
X168929160Y-80263628D01*
X168691065Y-80739819D02*
X168691065Y-79739819D01*
X168691065Y-79739819D02*
X169072017Y-79739819D01*
X169072017Y-79739819D02*
X169167255Y-79787438D01*
X169167255Y-79787438D02*
X169214874Y-79835057D01*
X169214874Y-79835057D02*
X169262493Y-79930295D01*
X169262493Y-79930295D02*
X169262493Y-80073152D01*
X169262493Y-80073152D02*
X169214874Y-80168390D01*
X169214874Y-80168390D02*
X169167255Y-80216009D01*
X169167255Y-80216009D02*
X169072017Y-80263628D01*
X169072017Y-80263628D02*
X168691065Y-80263628D01*
X160009819Y-108961792D02*
X159533628Y-109295125D01*
X160009819Y-109533220D02*
X159009819Y-109533220D01*
X159009819Y-109533220D02*
X159009819Y-109152268D01*
X159009819Y-109152268D02*
X159057438Y-109057030D01*
X159057438Y-109057030D02*
X159105057Y-109009411D01*
X159105057Y-109009411D02*
X159200295Y-108961792D01*
X159200295Y-108961792D02*
X159343152Y-108961792D01*
X159343152Y-108961792D02*
X159438390Y-109009411D01*
X159438390Y-109009411D02*
X159486009Y-109057030D01*
X159486009Y-109057030D02*
X159533628Y-109152268D01*
X159533628Y-109152268D02*
X159533628Y-109533220D01*
X159009819Y-108104649D02*
X159009819Y-108295125D01*
X159009819Y-108295125D02*
X159057438Y-108390363D01*
X159057438Y-108390363D02*
X159105057Y-108437982D01*
X159105057Y-108437982D02*
X159247914Y-108533220D01*
X159247914Y-108533220D02*
X159438390Y-108580839D01*
X159438390Y-108580839D02*
X159819342Y-108580839D01*
X159819342Y-108580839D02*
X159914580Y-108533220D01*
X159914580Y-108533220D02*
X159962200Y-108485601D01*
X159962200Y-108485601D02*
X160009819Y-108390363D01*
X160009819Y-108390363D02*
X160009819Y-108199887D01*
X160009819Y-108199887D02*
X159962200Y-108104649D01*
X159962200Y-108104649D02*
X159914580Y-108057030D01*
X159914580Y-108057030D02*
X159819342Y-108009411D01*
X159819342Y-108009411D02*
X159581247Y-108009411D01*
X159581247Y-108009411D02*
X159486009Y-108057030D01*
X159486009Y-108057030D02*
X159438390Y-108104649D01*
X159438390Y-108104649D02*
X159390771Y-108199887D01*
X159390771Y-108199887D02*
X159390771Y-108390363D01*
X159390771Y-108390363D02*
X159438390Y-108485601D01*
X159438390Y-108485601D02*
X159486009Y-108533220D01*
X159486009Y-108533220D02*
X159581247Y-108580839D01*
D10*
X151967693Y-121290038D02*
X151872455Y-121242419D01*
X151872455Y-121242419D02*
X151729598Y-121242419D01*
X151729598Y-121242419D02*
X151586741Y-121290038D01*
X151586741Y-121290038D02*
X151491503Y-121385276D01*
X151491503Y-121385276D02*
X151443884Y-121480514D01*
X151443884Y-121480514D02*
X151396265Y-121670990D01*
X151396265Y-121670990D02*
X151396265Y-121813847D01*
X151396265Y-121813847D02*
X151443884Y-122004323D01*
X151443884Y-122004323D02*
X151491503Y-122099561D01*
X151491503Y-122099561D02*
X151586741Y-122194800D01*
X151586741Y-122194800D02*
X151729598Y-122242419D01*
X151729598Y-122242419D02*
X151824836Y-122242419D01*
X151824836Y-122242419D02*
X151967693Y-122194800D01*
X151967693Y-122194800D02*
X152015312Y-122147180D01*
X152015312Y-122147180D02*
X152015312Y-121813847D01*
X152015312Y-121813847D02*
X151824836Y-121813847D01*
X152872455Y-122242419D02*
X152872455Y-121718609D01*
X152872455Y-121718609D02*
X152824836Y-121623371D01*
X152824836Y-121623371D02*
X152729598Y-121575752D01*
X152729598Y-121575752D02*
X152539122Y-121575752D01*
X152539122Y-121575752D02*
X152443884Y-121623371D01*
X152872455Y-122194800D02*
X152777217Y-122242419D01*
X152777217Y-122242419D02*
X152539122Y-122242419D01*
X152539122Y-122242419D02*
X152443884Y-122194800D01*
X152443884Y-122194800D02*
X152396265Y-122099561D01*
X152396265Y-122099561D02*
X152396265Y-122004323D01*
X152396265Y-122004323D02*
X152443884Y-121909085D01*
X152443884Y-121909085D02*
X152539122Y-121861466D01*
X152539122Y-121861466D02*
X152777217Y-121861466D01*
X152777217Y-121861466D02*
X152872455Y-121813847D01*
X153301027Y-122194800D02*
X153396265Y-122242419D01*
X153396265Y-122242419D02*
X153586741Y-122242419D01*
X153586741Y-122242419D02*
X153681979Y-122194800D01*
X153681979Y-122194800D02*
X153729598Y-122099561D01*
X153729598Y-122099561D02*
X153729598Y-122051942D01*
X153729598Y-122051942D02*
X153681979Y-121956704D01*
X153681979Y-121956704D02*
X153586741Y-121909085D01*
X153586741Y-121909085D02*
X153443884Y-121909085D01*
X153443884Y-121909085D02*
X153348646Y-121861466D01*
X153348646Y-121861466D02*
X153301027Y-121766228D01*
X153301027Y-121766228D02*
X153301027Y-121718609D01*
X153301027Y-121718609D02*
X153348646Y-121623371D01*
X153348646Y-121623371D02*
X153443884Y-121575752D01*
X153443884Y-121575752D02*
X153586741Y-121575752D01*
X153586741Y-121575752D02*
X153681979Y-121623371D01*
X137896265Y-122194800D02*
X138039122Y-122242419D01*
X138039122Y-122242419D02*
X138277217Y-122242419D01*
X138277217Y-122242419D02*
X138372455Y-122194800D01*
X138372455Y-122194800D02*
X138420074Y-122147180D01*
X138420074Y-122147180D02*
X138467693Y-122051942D01*
X138467693Y-122051942D02*
X138467693Y-121956704D01*
X138467693Y-121956704D02*
X138420074Y-121861466D01*
X138420074Y-121861466D02*
X138372455Y-121813847D01*
X138372455Y-121813847D02*
X138277217Y-121766228D01*
X138277217Y-121766228D02*
X138086741Y-121718609D01*
X138086741Y-121718609D02*
X137991503Y-121670990D01*
X137991503Y-121670990D02*
X137943884Y-121623371D01*
X137943884Y-121623371D02*
X137896265Y-121528133D01*
X137896265Y-121528133D02*
X137896265Y-121432895D01*
X137896265Y-121432895D02*
X137943884Y-121337657D01*
X137943884Y-121337657D02*
X137991503Y-121290038D01*
X137991503Y-121290038D02*
X138086741Y-121242419D01*
X138086741Y-121242419D02*
X138324836Y-121242419D01*
X138324836Y-121242419D02*
X138467693Y-121290038D01*
X139039122Y-122242419D02*
X138943884Y-122194800D01*
X138943884Y-122194800D02*
X138896265Y-122147180D01*
X138896265Y-122147180D02*
X138848646Y-122051942D01*
X138848646Y-122051942D02*
X138848646Y-121766228D01*
X138848646Y-121766228D02*
X138896265Y-121670990D01*
X138896265Y-121670990D02*
X138943884Y-121623371D01*
X138943884Y-121623371D02*
X139039122Y-121575752D01*
X139039122Y-121575752D02*
X139181979Y-121575752D01*
X139181979Y-121575752D02*
X139277217Y-121623371D01*
X139277217Y-121623371D02*
X139324836Y-121670990D01*
X139324836Y-121670990D02*
X139372455Y-121766228D01*
X139372455Y-121766228D02*
X139372455Y-122051942D01*
X139372455Y-122051942D02*
X139324836Y-122147180D01*
X139324836Y-122147180D02*
X139277217Y-122194800D01*
X139277217Y-122194800D02*
X139181979Y-122242419D01*
X139181979Y-122242419D02*
X139039122Y-122242419D01*
X139801027Y-122242419D02*
X139801027Y-121575752D01*
X139801027Y-121242419D02*
X139753408Y-121290038D01*
X139753408Y-121290038D02*
X139801027Y-121337657D01*
X139801027Y-121337657D02*
X139848646Y-121290038D01*
X139848646Y-121290038D02*
X139801027Y-121242419D01*
X139801027Y-121242419D02*
X139801027Y-121337657D01*
X140420074Y-122242419D02*
X140324836Y-122194800D01*
X140324836Y-122194800D02*
X140277217Y-122099561D01*
X140277217Y-122099561D02*
X140277217Y-121242419D01*
X141562932Y-122242419D02*
X141562932Y-121242419D01*
X141562932Y-121242419D02*
X141896265Y-121956704D01*
X141896265Y-121956704D02*
X142229598Y-121242419D01*
X142229598Y-121242419D02*
X142229598Y-122242419D01*
X142848646Y-122242419D02*
X142753408Y-122194800D01*
X142753408Y-122194800D02*
X142705789Y-122147180D01*
X142705789Y-122147180D02*
X142658170Y-122051942D01*
X142658170Y-122051942D02*
X142658170Y-121766228D01*
X142658170Y-121766228D02*
X142705789Y-121670990D01*
X142705789Y-121670990D02*
X142753408Y-121623371D01*
X142753408Y-121623371D02*
X142848646Y-121575752D01*
X142848646Y-121575752D02*
X142991503Y-121575752D01*
X142991503Y-121575752D02*
X143086741Y-121623371D01*
X143086741Y-121623371D02*
X143134360Y-121670990D01*
X143134360Y-121670990D02*
X143181979Y-121766228D01*
X143181979Y-121766228D02*
X143181979Y-122051942D01*
X143181979Y-122051942D02*
X143134360Y-122147180D01*
X143134360Y-122147180D02*
X143086741Y-122194800D01*
X143086741Y-122194800D02*
X142991503Y-122242419D01*
X142991503Y-122242419D02*
X142848646Y-122242419D01*
X143610551Y-122242419D02*
X143610551Y-121575752D01*
X143610551Y-121242419D02*
X143562932Y-121290038D01*
X143562932Y-121290038D02*
X143610551Y-121337657D01*
X143610551Y-121337657D02*
X143658170Y-121290038D01*
X143658170Y-121290038D02*
X143610551Y-121242419D01*
X143610551Y-121242419D02*
X143610551Y-121337657D01*
X144039122Y-122194800D02*
X144134360Y-122242419D01*
X144134360Y-122242419D02*
X144324836Y-122242419D01*
X144324836Y-122242419D02*
X144420074Y-122194800D01*
X144420074Y-122194800D02*
X144467693Y-122099561D01*
X144467693Y-122099561D02*
X144467693Y-122051942D01*
X144467693Y-122051942D02*
X144420074Y-121956704D01*
X144420074Y-121956704D02*
X144324836Y-121909085D01*
X144324836Y-121909085D02*
X144181979Y-121909085D01*
X144181979Y-121909085D02*
X144086741Y-121861466D01*
X144086741Y-121861466D02*
X144039122Y-121766228D01*
X144039122Y-121766228D02*
X144039122Y-121718609D01*
X144039122Y-121718609D02*
X144086741Y-121623371D01*
X144086741Y-121623371D02*
X144181979Y-121575752D01*
X144181979Y-121575752D02*
X144324836Y-121575752D01*
X144324836Y-121575752D02*
X144420074Y-121623371D01*
X144753408Y-121575752D02*
X145134360Y-121575752D01*
X144896265Y-121242419D02*
X144896265Y-122099561D01*
X144896265Y-122099561D02*
X144943884Y-122194800D01*
X144943884Y-122194800D02*
X145039122Y-122242419D01*
X145039122Y-122242419D02*
X145134360Y-122242419D01*
X145896265Y-121575752D02*
X145896265Y-122242419D01*
X145467694Y-121575752D02*
X145467694Y-122099561D01*
X145467694Y-122099561D02*
X145515313Y-122194800D01*
X145515313Y-122194800D02*
X145610551Y-122242419D01*
X145610551Y-122242419D02*
X145753408Y-122242419D01*
X145753408Y-122242419D02*
X145848646Y-122194800D01*
X145848646Y-122194800D02*
X145896265Y-122147180D01*
X146372456Y-122242419D02*
X146372456Y-121575752D01*
X146372456Y-121766228D02*
X146420075Y-121670990D01*
X146420075Y-121670990D02*
X146467694Y-121623371D01*
X146467694Y-121623371D02*
X146562932Y-121575752D01*
X146562932Y-121575752D02*
X146658170Y-121575752D01*
X147372456Y-122194800D02*
X147277218Y-122242419D01*
X147277218Y-122242419D02*
X147086742Y-122242419D01*
X147086742Y-122242419D02*
X146991504Y-122194800D01*
X146991504Y-122194800D02*
X146943885Y-122099561D01*
X146943885Y-122099561D02*
X146943885Y-121718609D01*
X146943885Y-121718609D02*
X146991504Y-121623371D01*
X146991504Y-121623371D02*
X147086742Y-121575752D01*
X147086742Y-121575752D02*
X147277218Y-121575752D01*
X147277218Y-121575752D02*
X147372456Y-121623371D01*
X147372456Y-121623371D02*
X147420075Y-121718609D01*
X147420075Y-121718609D02*
X147420075Y-121813847D01*
X147420075Y-121813847D02*
X146943885Y-121909085D01*
D11*
X135804819Y-119953333D02*
X136519104Y-119953333D01*
X136519104Y-119953333D02*
X136661961Y-120000952D01*
X136661961Y-120000952D02*
X136757200Y-120096190D01*
X136757200Y-120096190D02*
X136804819Y-120239047D01*
X136804819Y-120239047D02*
X136804819Y-120334285D01*
X136804819Y-118953333D02*
X136804819Y-119524761D01*
X136804819Y-119239047D02*
X135804819Y-119239047D01*
X135804819Y-119239047D02*
X135947676Y-119334285D01*
X135947676Y-119334285D02*
X136042914Y-119429523D01*
X136042914Y-119429523D02*
X136090533Y-119524761D01*
X139594819Y-96536666D02*
X139118628Y-96869999D01*
X139594819Y-97108094D02*
X138594819Y-97108094D01*
X138594819Y-97108094D02*
X138594819Y-96727142D01*
X138594819Y-96727142D02*
X138642438Y-96631904D01*
X138642438Y-96631904D02*
X138690057Y-96584285D01*
X138690057Y-96584285D02*
X138785295Y-96536666D01*
X138785295Y-96536666D02*
X138928152Y-96536666D01*
X138928152Y-96536666D02*
X139023390Y-96584285D01*
X139023390Y-96584285D02*
X139071009Y-96631904D01*
X139071009Y-96631904D02*
X139118628Y-96727142D01*
X139118628Y-96727142D02*
X139118628Y-97108094D01*
X138594819Y-96203332D02*
X138594819Y-95584285D01*
X138594819Y-95584285D02*
X138975771Y-95917618D01*
X138975771Y-95917618D02*
X138975771Y-95774761D01*
X138975771Y-95774761D02*
X139023390Y-95679523D01*
X139023390Y-95679523D02*
X139071009Y-95631904D01*
X139071009Y-95631904D02*
X139166247Y-95584285D01*
X139166247Y-95584285D02*
X139404342Y-95584285D01*
X139404342Y-95584285D02*
X139499580Y-95631904D01*
X139499580Y-95631904D02*
X139547200Y-95679523D01*
X139547200Y-95679523D02*
X139594819Y-95774761D01*
X139594819Y-95774761D02*
X139594819Y-96060475D01*
X139594819Y-96060475D02*
X139547200Y-96155713D01*
X139547200Y-96155713D02*
X139499580Y-96203332D01*
X135844819Y-86953333D02*
X136559104Y-86953333D01*
X136559104Y-86953333D02*
X136701961Y-87000952D01*
X136701961Y-87000952D02*
X136797200Y-87096190D01*
X136797200Y-87096190D02*
X136844819Y-87239047D01*
X136844819Y-87239047D02*
X136844819Y-87334285D01*
X135940057Y-86524761D02*
X135892438Y-86477142D01*
X135892438Y-86477142D02*
X135844819Y-86381904D01*
X135844819Y-86381904D02*
X135844819Y-86143809D01*
X135844819Y-86143809D02*
X135892438Y-86048571D01*
X135892438Y-86048571D02*
X135940057Y-86000952D01*
X135940057Y-86000952D02*
X136035295Y-85953333D01*
X136035295Y-85953333D02*
X136130533Y-85953333D01*
X136130533Y-85953333D02*
X136273390Y-86000952D01*
X136273390Y-86000952D02*
X136844819Y-86572380D01*
X136844819Y-86572380D02*
X136844819Y-85953333D01*
X125378095Y-98324819D02*
X125378095Y-97324819D01*
X125378095Y-97324819D02*
X125759047Y-97324819D01*
X125759047Y-97324819D02*
X125854285Y-97372438D01*
X125854285Y-97372438D02*
X125901904Y-97420057D01*
X125901904Y-97420057D02*
X125949523Y-97515295D01*
X125949523Y-97515295D02*
X125949523Y-97658152D01*
X125949523Y-97658152D02*
X125901904Y-97753390D01*
X125901904Y-97753390D02*
X125854285Y-97801009D01*
X125854285Y-97801009D02*
X125759047Y-97848628D01*
X125759047Y-97848628D02*
X125378095Y-97848628D01*
X155094819Y-96356666D02*
X154618628Y-96689999D01*
X155094819Y-96928094D02*
X154094819Y-96928094D01*
X154094819Y-96928094D02*
X154094819Y-96547142D01*
X154094819Y-96547142D02*
X154142438Y-96451904D01*
X154142438Y-96451904D02*
X154190057Y-96404285D01*
X154190057Y-96404285D02*
X154285295Y-96356666D01*
X154285295Y-96356666D02*
X154428152Y-96356666D01*
X154428152Y-96356666D02*
X154523390Y-96404285D01*
X154523390Y-96404285D02*
X154571009Y-96451904D01*
X154571009Y-96451904D02*
X154618628Y-96547142D01*
X154618628Y-96547142D02*
X154618628Y-96928094D01*
X154190057Y-95975713D02*
X154142438Y-95928094D01*
X154142438Y-95928094D02*
X154094819Y-95832856D01*
X154094819Y-95832856D02*
X154094819Y-95594761D01*
X154094819Y-95594761D02*
X154142438Y-95499523D01*
X154142438Y-95499523D02*
X154190057Y-95451904D01*
X154190057Y-95451904D02*
X154285295Y-95404285D01*
X154285295Y-95404285D02*
X154380533Y-95404285D01*
X154380533Y-95404285D02*
X154523390Y-95451904D01*
X154523390Y-95451904D02*
X155094819Y-96023332D01*
X155094819Y-96023332D02*
X155094819Y-95404285D01*
X120401905Y-87158152D02*
X120401905Y-88158152D01*
X120401905Y-87205771D02*
X120497143Y-87158152D01*
X120497143Y-87158152D02*
X120687619Y-87158152D01*
X120687619Y-87158152D02*
X120782857Y-87205771D01*
X120782857Y-87205771D02*
X120830476Y-87253390D01*
X120830476Y-87253390D02*
X120878095Y-87348628D01*
X120878095Y-87348628D02*
X120878095Y-87634342D01*
X120878095Y-87634342D02*
X120830476Y-87729580D01*
X120830476Y-87729580D02*
X120782857Y-87777200D01*
X120782857Y-87777200D02*
X120687619Y-87824819D01*
X120687619Y-87824819D02*
X120497143Y-87824819D01*
X120497143Y-87824819D02*
X120401905Y-87777200D01*
X121306667Y-87824819D02*
X121306667Y-86824819D01*
X121306667Y-87301009D02*
X121878095Y-87301009D01*
X121878095Y-87824819D02*
X121878095Y-86824819D01*
D10*
X135573609Y-107917618D02*
X135573609Y-107584285D01*
X136097419Y-107441428D02*
X136097419Y-107917618D01*
X136097419Y-107917618D02*
X135097419Y-107917618D01*
X135097419Y-107917618D02*
X135097419Y-107441428D01*
X136049800Y-107060475D02*
X136097419Y-106917618D01*
X136097419Y-106917618D02*
X136097419Y-106679523D01*
X136097419Y-106679523D02*
X136049800Y-106584285D01*
X136049800Y-106584285D02*
X136002180Y-106536666D01*
X136002180Y-106536666D02*
X135906942Y-106489047D01*
X135906942Y-106489047D02*
X135811704Y-106489047D01*
X135811704Y-106489047D02*
X135716466Y-106536666D01*
X135716466Y-106536666D02*
X135668847Y-106584285D01*
X135668847Y-106584285D02*
X135621228Y-106679523D01*
X135621228Y-106679523D02*
X135573609Y-106869999D01*
X135573609Y-106869999D02*
X135525990Y-106965237D01*
X135525990Y-106965237D02*
X135478371Y-107012856D01*
X135478371Y-107012856D02*
X135383133Y-107060475D01*
X135383133Y-107060475D02*
X135287895Y-107060475D01*
X135287895Y-107060475D02*
X135192657Y-107012856D01*
X135192657Y-107012856D02*
X135145038Y-106965237D01*
X135145038Y-106965237D02*
X135097419Y-106869999D01*
X135097419Y-106869999D02*
X135097419Y-106631904D01*
X135097419Y-106631904D02*
X135145038Y-106489047D01*
X136097419Y-106060475D02*
X135097419Y-106060475D01*
X135097419Y-106060475D02*
X135097419Y-105679523D01*
X135097419Y-105679523D02*
X135145038Y-105584285D01*
X135145038Y-105584285D02*
X135192657Y-105536666D01*
X135192657Y-105536666D02*
X135287895Y-105489047D01*
X135287895Y-105489047D02*
X135430752Y-105489047D01*
X135430752Y-105489047D02*
X135525990Y-105536666D01*
X135525990Y-105536666D02*
X135573609Y-105584285D01*
X135573609Y-105584285D02*
X135621228Y-105679523D01*
X135621228Y-105679523D02*
X135621228Y-106060475D01*
X135097419Y-105155713D02*
X135097419Y-104536666D01*
X135097419Y-104536666D02*
X135478371Y-104869999D01*
X135478371Y-104869999D02*
X135478371Y-104727142D01*
X135478371Y-104727142D02*
X135525990Y-104631904D01*
X135525990Y-104631904D02*
X135573609Y-104584285D01*
X135573609Y-104584285D02*
X135668847Y-104536666D01*
X135668847Y-104536666D02*
X135906942Y-104536666D01*
X135906942Y-104536666D02*
X136002180Y-104584285D01*
X136002180Y-104584285D02*
X136049800Y-104631904D01*
X136049800Y-104631904D02*
X136097419Y-104727142D01*
X136097419Y-104727142D02*
X136097419Y-105012856D01*
X136097419Y-105012856D02*
X136049800Y-105108094D01*
X136049800Y-105108094D02*
X136002180Y-105155713D01*
X135192657Y-104155713D02*
X135145038Y-104108094D01*
X135145038Y-104108094D02*
X135097419Y-104012856D01*
X135097419Y-104012856D02*
X135097419Y-103774761D01*
X135097419Y-103774761D02*
X135145038Y-103679523D01*
X135145038Y-103679523D02*
X135192657Y-103631904D01*
X135192657Y-103631904D02*
X135287895Y-103584285D01*
X135287895Y-103584285D02*
X135383133Y-103584285D01*
X135383133Y-103584285D02*
X135525990Y-103631904D01*
X135525990Y-103631904D02*
X136097419Y-104203332D01*
X136097419Y-104203332D02*
X136097419Y-103584285D01*
X136097419Y-103155713D02*
X135097419Y-103155713D01*
X135097419Y-103155713D02*
X135097419Y-102917618D01*
X135097419Y-102917618D02*
X135145038Y-102774761D01*
X135145038Y-102774761D02*
X135240276Y-102679523D01*
X135240276Y-102679523D02*
X135335514Y-102631904D01*
X135335514Y-102631904D02*
X135525990Y-102584285D01*
X135525990Y-102584285D02*
X135668847Y-102584285D01*
X135668847Y-102584285D02*
X135859323Y-102631904D01*
X135859323Y-102631904D02*
X135954561Y-102679523D01*
X135954561Y-102679523D02*
X136049800Y-102774761D01*
X136049800Y-102774761D02*
X136097419Y-102917618D01*
X136097419Y-102917618D02*
X136097419Y-103155713D01*
X135573609Y-102155713D02*
X135573609Y-101822380D01*
X136097419Y-101679523D02*
X136097419Y-102155713D01*
X136097419Y-102155713D02*
X135097419Y-102155713D01*
X135097419Y-102155713D02*
X135097419Y-101679523D01*
X135097419Y-101393808D02*
X136097419Y-101060475D01*
X136097419Y-101060475D02*
X135097419Y-100727142D01*
X136097419Y-100393808D02*
X135097419Y-100393808D01*
X136097419Y-99822380D02*
X135525990Y-100250951D01*
X135097419Y-99822380D02*
X135668847Y-100393808D01*
X136097419Y-99393808D02*
X135097419Y-99393808D01*
X135097419Y-99060475D02*
X135097419Y-98489047D01*
X136097419Y-98774761D02*
X135097419Y-98774761D01*
X135097419Y-98298570D02*
X136097419Y-97965237D01*
X136097419Y-97965237D02*
X135097419Y-97631904D01*
X136097419Y-96774761D02*
X136097419Y-97346189D01*
X136097419Y-97060475D02*
X135097419Y-97060475D01*
X135097419Y-97060475D02*
X135240276Y-97155713D01*
X135240276Y-97155713D02*
X135335514Y-97250951D01*
X135335514Y-97250951D02*
X135383133Y-97346189D01*
D11*
X157094819Y-109036666D02*
X156618628Y-109369999D01*
X157094819Y-109608094D02*
X156094819Y-109608094D01*
X156094819Y-109608094D02*
X156094819Y-109227142D01*
X156094819Y-109227142D02*
X156142438Y-109131904D01*
X156142438Y-109131904D02*
X156190057Y-109084285D01*
X156190057Y-109084285D02*
X156285295Y-109036666D01*
X156285295Y-109036666D02*
X156428152Y-109036666D01*
X156428152Y-109036666D02*
X156523390Y-109084285D01*
X156523390Y-109084285D02*
X156571009Y-109131904D01*
X156571009Y-109131904D02*
X156618628Y-109227142D01*
X156618628Y-109227142D02*
X156618628Y-109608094D01*
X156428152Y-108179523D02*
X157094819Y-108179523D01*
X156047200Y-108417618D02*
X156761485Y-108655713D01*
X156761485Y-108655713D02*
X156761485Y-108036666D01*
X152520952Y-80699819D02*
X152520952Y-79699819D01*
X152520952Y-79699819D02*
X152759047Y-79699819D01*
X152759047Y-79699819D02*
X152901904Y-79747438D01*
X152901904Y-79747438D02*
X152997142Y-79842676D01*
X152997142Y-79842676D02*
X153044761Y-79937914D01*
X153044761Y-79937914D02*
X153092380Y-80128390D01*
X153092380Y-80128390D02*
X153092380Y-80271247D01*
X153092380Y-80271247D02*
X153044761Y-80461723D01*
X153044761Y-80461723D02*
X152997142Y-80556961D01*
X152997142Y-80556961D02*
X152901904Y-80652200D01*
X152901904Y-80652200D02*
X152759047Y-80699819D01*
X152759047Y-80699819D02*
X152520952Y-80699819D01*
X153520952Y-80699819D02*
X153520952Y-79699819D01*
X153520952Y-80176009D02*
X154092380Y-80176009D01*
X154092380Y-80699819D02*
X154092380Y-79699819D01*
X154425714Y-79699819D02*
X154997142Y-79699819D01*
X154711428Y-80699819D02*
X154711428Y-79699819D01*
X155854285Y-80699819D02*
X155282857Y-80699819D01*
X155568571Y-80699819D02*
X155568571Y-79699819D01*
X155568571Y-79699819D02*
X155473333Y-79842676D01*
X155473333Y-79842676D02*
X155378095Y-79937914D01*
X155378095Y-79937914D02*
X155282857Y-79985533D01*
X156806666Y-80699819D02*
X156235238Y-80699819D01*
X156520952Y-80699819D02*
X156520952Y-79699819D01*
X156520952Y-79699819D02*
X156425714Y-79842676D01*
X156425714Y-79842676D02*
X156330476Y-79937914D01*
X156330476Y-79937914D02*
X156235238Y-79985533D01*
X125378095Y-108824819D02*
X125378095Y-107824819D01*
X125949523Y-108824819D02*
X125520952Y-108253390D01*
X125949523Y-107824819D02*
X125378095Y-108396247D01*
X118759047Y-97014819D02*
X118997142Y-98014819D01*
X118997142Y-98014819D02*
X119187618Y-97300533D01*
X119187618Y-97300533D02*
X119378094Y-98014819D01*
X119378094Y-98014819D02*
X119616190Y-97014819D01*
X120425713Y-98014819D02*
X120425713Y-97491009D01*
X120425713Y-97491009D02*
X120378094Y-97395771D01*
X120378094Y-97395771D02*
X120282856Y-97348152D01*
X120282856Y-97348152D02*
X120092380Y-97348152D01*
X120092380Y-97348152D02*
X119997142Y-97395771D01*
X120425713Y-97967200D02*
X120330475Y-98014819D01*
X120330475Y-98014819D02*
X120092380Y-98014819D01*
X120092380Y-98014819D02*
X119997142Y-97967200D01*
X119997142Y-97967200D02*
X119949523Y-97871961D01*
X119949523Y-97871961D02*
X119949523Y-97776723D01*
X119949523Y-97776723D02*
X119997142Y-97681485D01*
X119997142Y-97681485D02*
X120092380Y-97633866D01*
X120092380Y-97633866D02*
X120330475Y-97633866D01*
X120330475Y-97633866D02*
X120425713Y-97586247D01*
X120759047Y-97348152D02*
X121139999Y-97348152D01*
X120901904Y-97014819D02*
X120901904Y-97871961D01*
X120901904Y-97871961D02*
X120949523Y-97967200D01*
X120949523Y-97967200D02*
X121044761Y-98014819D01*
X121044761Y-98014819D02*
X121139999Y-98014819D01*
X121854285Y-97967200D02*
X121759047Y-98014819D01*
X121759047Y-98014819D02*
X121568571Y-98014819D01*
X121568571Y-98014819D02*
X121473333Y-97967200D01*
X121473333Y-97967200D02*
X121425714Y-97871961D01*
X121425714Y-97871961D02*
X121425714Y-97491009D01*
X121425714Y-97491009D02*
X121473333Y-97395771D01*
X121473333Y-97395771D02*
X121568571Y-97348152D01*
X121568571Y-97348152D02*
X121759047Y-97348152D01*
X121759047Y-97348152D02*
X121854285Y-97395771D01*
X121854285Y-97395771D02*
X121901904Y-97491009D01*
X121901904Y-97491009D02*
X121901904Y-97586247D01*
X121901904Y-97586247D02*
X121425714Y-97681485D01*
X122330476Y-98014819D02*
X122330476Y-97348152D01*
X122330476Y-97538628D02*
X122378095Y-97443390D01*
X122378095Y-97443390D02*
X122425714Y-97395771D01*
X122425714Y-97395771D02*
X122520952Y-97348152D01*
X122520952Y-97348152D02*
X122616190Y-97348152D01*
X123473333Y-98014819D02*
X122901905Y-98014819D01*
X123187619Y-98014819D02*
X123187619Y-97014819D01*
X123187619Y-97014819D02*
X123092381Y-97157676D01*
X123092381Y-97157676D02*
X122997143Y-97252914D01*
X122997143Y-97252914D02*
X122901905Y-97300533D01*
X125354286Y-87824819D02*
X125354286Y-86824819D01*
X125354286Y-86824819D02*
X125925714Y-87824819D01*
X125925714Y-87824819D02*
X125925714Y-86824819D01*
X163094819Y-109036666D02*
X162618628Y-109369999D01*
X163094819Y-109608094D02*
X162094819Y-109608094D01*
X162094819Y-109608094D02*
X162094819Y-109227142D01*
X162094819Y-109227142D02*
X162142438Y-109131904D01*
X162142438Y-109131904D02*
X162190057Y-109084285D01*
X162190057Y-109084285D02*
X162285295Y-109036666D01*
X162285295Y-109036666D02*
X162428152Y-109036666D01*
X162428152Y-109036666D02*
X162523390Y-109084285D01*
X162523390Y-109084285D02*
X162571009Y-109131904D01*
X162571009Y-109131904D02*
X162618628Y-109227142D01*
X162618628Y-109227142D02*
X162618628Y-109608094D01*
X162094819Y-108131904D02*
X162094819Y-108608094D01*
X162094819Y-108608094D02*
X162571009Y-108655713D01*
X162571009Y-108655713D02*
X162523390Y-108608094D01*
X162523390Y-108608094D02*
X162475771Y-108512856D01*
X162475771Y-108512856D02*
X162475771Y-108274761D01*
X162475771Y-108274761D02*
X162523390Y-108179523D01*
X162523390Y-108179523D02*
X162571009Y-108131904D01*
X162571009Y-108131904D02*
X162666247Y-108084285D01*
X162666247Y-108084285D02*
X162904342Y-108084285D01*
X162904342Y-108084285D02*
X162999580Y-108131904D01*
X162999580Y-108131904D02*
X163047200Y-108179523D01*
X163047200Y-108179523D02*
X163094819Y-108274761D01*
X163094819Y-108274761D02*
X163094819Y-108512856D01*
X163094819Y-108512856D02*
X163047200Y-108608094D01*
X163047200Y-108608094D02*
X162999580Y-108655713D01*
X152594819Y-96356666D02*
X152118628Y-96689999D01*
X152594819Y-96928094D02*
X151594819Y-96928094D01*
X151594819Y-96928094D02*
X151594819Y-96547142D01*
X151594819Y-96547142D02*
X151642438Y-96451904D01*
X151642438Y-96451904D02*
X151690057Y-96404285D01*
X151690057Y-96404285D02*
X151785295Y-96356666D01*
X151785295Y-96356666D02*
X151928152Y-96356666D01*
X151928152Y-96356666D02*
X152023390Y-96404285D01*
X152023390Y-96404285D02*
X152071009Y-96451904D01*
X152071009Y-96451904D02*
X152118628Y-96547142D01*
X152118628Y-96547142D02*
X152118628Y-96928094D01*
X152594819Y-95404285D02*
X152594819Y-95975713D01*
X152594819Y-95689999D02*
X151594819Y-95689999D01*
X151594819Y-95689999D02*
X151737676Y-95785237D01*
X151737676Y-95785237D02*
X151832914Y-95880475D01*
X151832914Y-95880475D02*
X151880533Y-95975713D01*
X118759047Y-107514819D02*
X118997142Y-108514819D01*
X118997142Y-108514819D02*
X119187618Y-107800533D01*
X119187618Y-107800533D02*
X119378094Y-108514819D01*
X119378094Y-108514819D02*
X119616190Y-107514819D01*
X120425713Y-108514819D02*
X120425713Y-107991009D01*
X120425713Y-107991009D02*
X120378094Y-107895771D01*
X120378094Y-107895771D02*
X120282856Y-107848152D01*
X120282856Y-107848152D02*
X120092380Y-107848152D01*
X120092380Y-107848152D02*
X119997142Y-107895771D01*
X120425713Y-108467200D02*
X120330475Y-108514819D01*
X120330475Y-108514819D02*
X120092380Y-108514819D01*
X120092380Y-108514819D02*
X119997142Y-108467200D01*
X119997142Y-108467200D02*
X119949523Y-108371961D01*
X119949523Y-108371961D02*
X119949523Y-108276723D01*
X119949523Y-108276723D02*
X119997142Y-108181485D01*
X119997142Y-108181485D02*
X120092380Y-108133866D01*
X120092380Y-108133866D02*
X120330475Y-108133866D01*
X120330475Y-108133866D02*
X120425713Y-108086247D01*
X120759047Y-107848152D02*
X121139999Y-107848152D01*
X120901904Y-107514819D02*
X120901904Y-108371961D01*
X120901904Y-108371961D02*
X120949523Y-108467200D01*
X120949523Y-108467200D02*
X121044761Y-108514819D01*
X121044761Y-108514819D02*
X121139999Y-108514819D01*
X121854285Y-108467200D02*
X121759047Y-108514819D01*
X121759047Y-108514819D02*
X121568571Y-108514819D01*
X121568571Y-108514819D02*
X121473333Y-108467200D01*
X121473333Y-108467200D02*
X121425714Y-108371961D01*
X121425714Y-108371961D02*
X121425714Y-107991009D01*
X121425714Y-107991009D02*
X121473333Y-107895771D01*
X121473333Y-107895771D02*
X121568571Y-107848152D01*
X121568571Y-107848152D02*
X121759047Y-107848152D01*
X121759047Y-107848152D02*
X121854285Y-107895771D01*
X121854285Y-107895771D02*
X121901904Y-107991009D01*
X121901904Y-107991009D02*
X121901904Y-108086247D01*
X121901904Y-108086247D02*
X121425714Y-108181485D01*
X122330476Y-108514819D02*
X122330476Y-107848152D01*
X122330476Y-108038628D02*
X122378095Y-107943390D01*
X122378095Y-107943390D02*
X122425714Y-107895771D01*
X122425714Y-107895771D02*
X122520952Y-107848152D01*
X122520952Y-107848152D02*
X122616190Y-107848152D01*
X123140000Y-107514819D02*
X123235238Y-107514819D01*
X123235238Y-107514819D02*
X123330476Y-107562438D01*
X123330476Y-107562438D02*
X123378095Y-107610057D01*
X123378095Y-107610057D02*
X123425714Y-107705295D01*
X123425714Y-107705295D02*
X123473333Y-107895771D01*
X123473333Y-107895771D02*
X123473333Y-108133866D01*
X123473333Y-108133866D02*
X123425714Y-108324342D01*
X123425714Y-108324342D02*
X123378095Y-108419580D01*
X123378095Y-108419580D02*
X123330476Y-108467200D01*
X123330476Y-108467200D02*
X123235238Y-108514819D01*
X123235238Y-108514819D02*
X123140000Y-108514819D01*
X123140000Y-108514819D02*
X123044762Y-108467200D01*
X123044762Y-108467200D02*
X122997143Y-108419580D01*
X122997143Y-108419580D02*
X122949524Y-108324342D01*
X122949524Y-108324342D02*
X122901905Y-108133866D01*
X122901905Y-108133866D02*
X122901905Y-107895771D01*
X122901905Y-107895771D02*
X122949524Y-107705295D01*
X122949524Y-107705295D02*
X122997143Y-107610057D01*
X122997143Y-107610057D02*
X123044762Y-107562438D01*
X123044762Y-107562438D02*
X123140000Y-107514819D01*
D12*
%TO.C,J1*%
X176010000Y-120950000D02*
X176010000Y-118290000D01*
X140390000Y-120950000D02*
X176010000Y-120950000D01*
X140390000Y-120950000D02*
X140390000Y-118290000D01*
X140390000Y-118290000D02*
X176010000Y-118290000D01*
X137790000Y-119620000D02*
X137790000Y-118290000D01*
X137790000Y-118290000D02*
X139120000Y-118290000D01*
%TO.C,R3*%
X138080000Y-94260000D02*
X138080000Y-98100000D01*
X138080000Y-98100000D02*
X139920000Y-98100000D01*
X139000000Y-93310000D02*
X139000000Y-94260000D01*
X139000000Y-99050000D02*
X139000000Y-98100000D01*
X139920000Y-94260000D02*
X138080000Y-94260000D01*
X139920000Y-98100000D02*
X139920000Y-94260000D01*
%TO.C,RAIN0*%
X157755000Y-122740000D02*
X157755000Y-125400000D01*
X162895000Y-122740000D02*
X157755000Y-122740000D01*
X162895000Y-122740000D02*
X162895000Y-125400000D01*
X162895000Y-125400000D02*
X157755000Y-125400000D01*
X165495000Y-124070000D02*
X165495000Y-125400000D01*
X165495000Y-125400000D02*
X164165000Y-125400000D01*
%TO.C,R6*%
X158720000Y-106950000D02*
X158720000Y-110790000D01*
X158720000Y-110790000D02*
X160560000Y-110790000D01*
X159640000Y-106000000D02*
X159640000Y-106950000D01*
X159640000Y-111740000D02*
X159640000Y-110790000D01*
X160560000Y-106950000D02*
X158720000Y-106950000D01*
X160560000Y-110790000D02*
X160560000Y-106950000D01*
%TO.C,J2*%
X137830000Y-85290000D02*
X139160000Y-85290000D01*
X137830000Y-86620000D02*
X137830000Y-85290000D01*
X140430000Y-85290000D02*
X176050000Y-85290000D01*
X140430000Y-87950000D02*
X140430000Y-85290000D01*
X140430000Y-87950000D02*
X176050000Y-87950000D01*
X176050000Y-87950000D02*
X176050000Y-85290000D01*
%TO.C,P*%
X124360000Y-101670000D02*
X124360000Y-106810000D01*
X124360000Y-101670000D02*
X127020000Y-101670000D01*
X124360000Y-106810000D02*
X127020000Y-106810000D01*
X125690000Y-99070000D02*
X127020000Y-99070000D01*
X127020000Y-99070000D02*
X127020000Y-100400000D01*
X127020000Y-101670000D02*
X127020000Y-106810000D01*
%TO.C,PowerIN_1*%
X177270000Y-118540000D02*
X178600000Y-118540000D01*
X177270000Y-119870000D02*
X177270000Y-118540000D01*
X179870000Y-118540000D02*
X182470000Y-118540000D01*
X179870000Y-121200000D02*
X179870000Y-118540000D01*
X179870000Y-121200000D02*
X182470000Y-121200000D01*
X182470000Y-121200000D02*
X182470000Y-118540000D01*
%TO.C,R2*%
X153580000Y-94270000D02*
X153580000Y-98110000D01*
X153580000Y-98110000D02*
X155420000Y-98110000D01*
X154500000Y-93320000D02*
X154500000Y-94270000D01*
X154500000Y-99060000D02*
X154500000Y-98110000D01*
X155420000Y-94270000D02*
X153580000Y-94270000D01*
X155420000Y-98110000D02*
X155420000Y-94270000D01*
%TO.C,pH*%
X119810000Y-91100000D02*
X119810000Y-96240000D01*
X119810000Y-91100000D02*
X122470000Y-91100000D01*
X119810000Y-96240000D02*
X122470000Y-96240000D01*
X121140000Y-88500000D02*
X122470000Y-88500000D01*
X122470000Y-88500000D02*
X122470000Y-89830000D01*
X122470000Y-91100000D02*
X122470000Y-96240000D01*
%TO.C,ESP32DEVKITV1*%
D10*
X131880000Y-88840000D02*
X183330000Y-88840000D01*
X183330000Y-117170000D01*
X131880000Y-117170000D01*
X131880000Y-88840000D01*
D12*
%TO.C,R4*%
X155720000Y-106950000D02*
X155720000Y-110790000D01*
X155720000Y-110790000D02*
X157560000Y-110790000D01*
X156640000Y-106000000D02*
X156640000Y-106950000D01*
X156640000Y-111740000D02*
X156640000Y-110790000D01*
X157560000Y-106950000D02*
X155720000Y-106950000D01*
X157560000Y-110790000D02*
X157560000Y-106950000D01*
%TO.C,DHT11*%
X150310000Y-80890000D02*
X151640000Y-80890000D01*
X150310000Y-82220000D02*
X150310000Y-80890000D01*
X152910000Y-80890000D02*
X158050000Y-80890000D01*
X152910000Y-83550000D02*
X152910000Y-80890000D01*
X152910000Y-83550000D02*
X158050000Y-83550000D01*
X158050000Y-83550000D02*
X158050000Y-80890000D01*
%TO.C,K*%
X124310000Y-112100000D02*
X124310000Y-117240000D01*
X124310000Y-112100000D02*
X126970000Y-112100000D01*
X124310000Y-117240000D02*
X126970000Y-117240000D01*
X125640000Y-109500000D02*
X126970000Y-109500000D01*
X126970000Y-109500000D02*
X126970000Y-110830000D01*
X126970000Y-112100000D02*
X126970000Y-117240000D01*
%TO.C,Water1*%
X119810000Y-101600000D02*
X119810000Y-106740000D01*
X119810000Y-101600000D02*
X122470000Y-101600000D01*
X119810000Y-106740000D02*
X122470000Y-106740000D01*
X121140000Y-99000000D02*
X122470000Y-99000000D01*
X122470000Y-99000000D02*
X122470000Y-100330000D01*
X122470000Y-101600000D02*
X122470000Y-106740000D01*
%TO.C,N*%
X124310000Y-91060000D02*
X124310000Y-96200000D01*
X124310000Y-91060000D02*
X126970000Y-91060000D01*
X124310000Y-96200000D02*
X126970000Y-96200000D01*
X125640000Y-88460000D02*
X126970000Y-88460000D01*
X126970000Y-88460000D02*
X126970000Y-89790000D01*
X126970000Y-91060000D02*
X126970000Y-96200000D01*
%TO.C,R5*%
X161720000Y-106950000D02*
X161720000Y-110790000D01*
X161720000Y-110790000D02*
X163560000Y-110790000D01*
X162640000Y-106000000D02*
X162640000Y-106950000D01*
X162640000Y-111740000D02*
X162640000Y-110790000D01*
X163560000Y-106950000D02*
X161720000Y-106950000D01*
X163560000Y-110790000D02*
X163560000Y-106950000D01*
%TO.C,SOIL0*%
X139730000Y-122715000D02*
X141060000Y-122715000D01*
X139730000Y-124045000D02*
X139730000Y-122715000D01*
X142330000Y-122715000D02*
X147470000Y-122715000D01*
X142330000Y-125375000D02*
X142330000Y-122715000D01*
X142330000Y-125375000D02*
X147470000Y-125375000D01*
X147470000Y-125375000D02*
X147470000Y-122715000D01*
%TO.C,GAS0*%
X148755000Y-122740000D02*
X148755000Y-125400000D01*
X153895000Y-122740000D02*
X148755000Y-122740000D01*
X153895000Y-122740000D02*
X153895000Y-125400000D01*
X153895000Y-125400000D02*
X148755000Y-125400000D01*
X156495000Y-124070000D02*
X156495000Y-125400000D01*
X156495000Y-125400000D02*
X155165000Y-125400000D01*
%TO.C,R1*%
X151080000Y-94270000D02*
X151080000Y-98110000D01*
X151080000Y-98110000D02*
X152920000Y-98110000D01*
X152000000Y-93320000D02*
X152000000Y-94270000D01*
X152000000Y-99060000D02*
X152000000Y-98110000D01*
X152920000Y-94270000D02*
X151080000Y-94270000D01*
X152920000Y-98110000D02*
X152920000Y-94270000D01*
%TO.C,Water0*%
X119810000Y-112100000D02*
X119810000Y-117240000D01*
X119810000Y-112100000D02*
X122470000Y-112100000D01*
X119810000Y-117240000D02*
X122470000Y-117240000D01*
X121140000Y-109500000D02*
X122470000Y-109500000D01*
X122470000Y-109500000D02*
X122470000Y-110830000D01*
X122470000Y-112100000D02*
X122470000Y-117240000D01*
%TO.C,J3*%
X158990000Y-80915000D02*
X158990000Y-83575000D01*
X166670000Y-80915000D02*
X158990000Y-80915000D01*
X166670000Y-80915000D02*
X166670000Y-83575000D01*
X166670000Y-83575000D02*
X158990000Y-83575000D01*
X169270000Y-82245000D02*
X169270000Y-83575000D01*
X169270000Y-83575000D02*
X167940000Y-83575000D01*
%TD*%
M02*
