%TF.GenerationSoftware,KiCad,Pcbnew,8.0.0*%
%TF.CreationDate,2025-01-05T23:10:09+05:30*%
%TF.ProjectId,sunday_pcb,73756e64-6179-45f7-9063-622e6b696361,rev?*%
%TF.SameCoordinates,Original*%
%TF.FileFunction,Copper,L2,Bot*%
%TF.FilePolarity,Positive*%
%FSLAX46Y46*%
G04 Gerber Fmt 4.6, Leading zero omitted, Abs format (unit mm)*
G04 Created by KiCad (PCBNEW 8.0.0) date 2025-01-05 23:10:09*
%MOMM*%
%LPD*%
G01*
G04 APERTURE LIST*
%ADD10C,0.250000*%
%TA.AperFunction,NonConductor*%
%ADD11C,0.250000*%
%TD*%
%TA.AperFunction,ComponentPad*%
%ADD12O,1.700000X1.700000*%
%TD*%
%TA.AperFunction,ComponentPad*%
%ADD13R,1.700000X1.700000*%
%TD*%
%TA.AperFunction,ComponentPad*%
%ADD14C,1.400000*%
%TD*%
%TA.AperFunction,ComponentPad*%
%ADD15O,1.400000X1.400000*%
%TD*%
%TA.AperFunction,ComponentPad*%
%ADD16C,1.700000*%
%TD*%
%TA.AperFunction,ComponentPad*%
%ADD17R,1.500000X1.050000*%
%TD*%
%TA.AperFunction,ComponentPad*%
%ADD18O,1.500000X1.050000*%
%TD*%
%TA.AperFunction,ViaPad*%
%ADD19C,0.800000*%
%TD*%
%TA.AperFunction,Conductor*%
%ADD20C,0.750000*%
%TD*%
G04 APERTURE END LIST*
D10*
D11*
X148192669Y-81803428D02*
X147335527Y-81803428D01*
X147764098Y-83303428D02*
X147764098Y-81803428D01*
X146835527Y-83303428D02*
X146835527Y-81803428D01*
X146835527Y-82517714D02*
X145978384Y-82517714D01*
X145978384Y-83303428D02*
X145978384Y-81803428D01*
X145264098Y-82517714D02*
X144764098Y-82517714D01*
X144549812Y-83303428D02*
X145264098Y-83303428D01*
X145264098Y-83303428D02*
X145264098Y-81803428D01*
X145264098Y-81803428D02*
X144549812Y-81803428D01*
X142835526Y-83232000D02*
X142621241Y-83303428D01*
X142621241Y-83303428D02*
X142264098Y-83303428D01*
X142264098Y-83303428D02*
X142121241Y-83232000D01*
X142121241Y-83232000D02*
X142049812Y-83160571D01*
X142049812Y-83160571D02*
X141978383Y-83017714D01*
X141978383Y-83017714D02*
X141978383Y-82874857D01*
X141978383Y-82874857D02*
X142049812Y-82732000D01*
X142049812Y-82732000D02*
X142121241Y-82660571D01*
X142121241Y-82660571D02*
X142264098Y-82589142D01*
X142264098Y-82589142D02*
X142549812Y-82517714D01*
X142549812Y-82517714D02*
X142692669Y-82446285D01*
X142692669Y-82446285D02*
X142764098Y-82374857D01*
X142764098Y-82374857D02*
X142835526Y-82232000D01*
X142835526Y-82232000D02*
X142835526Y-82089142D01*
X142835526Y-82089142D02*
X142764098Y-81946285D01*
X142764098Y-81946285D02*
X142692669Y-81874857D01*
X142692669Y-81874857D02*
X142549812Y-81803428D01*
X142549812Y-81803428D02*
X142192669Y-81803428D01*
X142192669Y-81803428D02*
X141978383Y-81874857D01*
X141406955Y-82874857D02*
X140692670Y-82874857D01*
X141549812Y-83303428D02*
X141049812Y-81803428D01*
X141049812Y-81803428D02*
X140549812Y-83303428D01*
X140049813Y-83303428D02*
X140049813Y-81803428D01*
X138478384Y-83303428D02*
X138978384Y-82589142D01*
X139335527Y-83303428D02*
X139335527Y-81803428D01*
X139335527Y-81803428D02*
X138764098Y-81803428D01*
X138764098Y-81803428D02*
X138621241Y-81874857D01*
X138621241Y-81874857D02*
X138549812Y-81946285D01*
X138549812Y-81946285D02*
X138478384Y-82089142D01*
X138478384Y-82089142D02*
X138478384Y-82303428D01*
X138478384Y-82303428D02*
X138549812Y-82446285D01*
X138549812Y-82446285D02*
X138621241Y-82517714D01*
X138621241Y-82517714D02*
X138764098Y-82589142D01*
X138764098Y-82589142D02*
X139335527Y-82589142D01*
X137835527Y-81803428D02*
X137835527Y-83017714D01*
X137835527Y-83017714D02*
X137764098Y-83160571D01*
X137764098Y-83160571D02*
X137692670Y-83232000D01*
X137692670Y-83232000D02*
X137549812Y-83303428D01*
X137549812Y-83303428D02*
X137264098Y-83303428D01*
X137264098Y-83303428D02*
X137121241Y-83232000D01*
X137121241Y-83232000D02*
X137049812Y-83160571D01*
X137049812Y-83160571D02*
X136978384Y-83017714D01*
X136978384Y-83017714D02*
X136978384Y-81803428D01*
X136264098Y-83303428D02*
X136264098Y-81803428D01*
X136264098Y-81803428D02*
X135906955Y-81803428D01*
X135906955Y-81803428D02*
X135692669Y-81874857D01*
X135692669Y-81874857D02*
X135549812Y-82017714D01*
X135549812Y-82017714D02*
X135478383Y-82160571D01*
X135478383Y-82160571D02*
X135406955Y-82446285D01*
X135406955Y-82446285D02*
X135406955Y-82660571D01*
X135406955Y-82660571D02*
X135478383Y-82946285D01*
X135478383Y-82946285D02*
X135549812Y-83089142D01*
X135549812Y-83089142D02*
X135692669Y-83232000D01*
X135692669Y-83232000D02*
X135906955Y-83303428D01*
X135906955Y-83303428D02*
X136264098Y-83303428D01*
X133906955Y-83303428D02*
X134406955Y-82589142D01*
X134764098Y-83303428D02*
X134764098Y-81803428D01*
X134764098Y-81803428D02*
X134192669Y-81803428D01*
X134192669Y-81803428D02*
X134049812Y-81874857D01*
X134049812Y-81874857D02*
X133978383Y-81946285D01*
X133978383Y-81946285D02*
X133906955Y-82089142D01*
X133906955Y-82089142D02*
X133906955Y-82303428D01*
X133906955Y-82303428D02*
X133978383Y-82446285D01*
X133978383Y-82446285D02*
X134049812Y-82517714D01*
X134049812Y-82517714D02*
X134192669Y-82589142D01*
X134192669Y-82589142D02*
X134764098Y-82589142D01*
X133335526Y-82874857D02*
X132621241Y-82874857D01*
X133478383Y-83303428D02*
X132978383Y-81803428D01*
X132978383Y-81803428D02*
X132478383Y-83303428D01*
D12*
%TO.P,J1,15,Pin_15*%
%TO.N,5V*%
X174680000Y-119620000D03*
%TO.P,J1,14,Pin_14*%
%TO.N,GND*%
X172140000Y-119620000D03*
%TO.P,J1,13,Pin_13*%
%TO.N,D_13*%
X169600000Y-119620000D03*
%TO.P,J1,12,Pin_12*%
%TO.N,D_12*%
X167060000Y-119620000D03*
%TO.P,J1,11,Pin_11*%
%TO.N,D_14*%
X164520000Y-119620000D03*
%TO.P,J1,10,Pin_10*%
%TO.N,ESP_RELAY_W1*%
X161980000Y-119620000D03*
%TO.P,J1,9,Pin_9*%
%TO.N,ESP_RELAY_W0*%
X159440000Y-119620000D03*
%TO.P,J1,8,Pin_8*%
%TO.N,ESP_RELAY_pH*%
X156900000Y-119620000D03*
%TO.P,J1,7,Pin_7*%
%TO.N,D_33*%
X154360000Y-119620000D03*
%TO.P,J1,6,Pin_6*%
%TO.N,RAIN*%
X151820000Y-119620000D03*
%TO.P,J1,5,Pin_5*%
%TO.N,GAS*%
X149280000Y-119620000D03*
%TO.P,J1,4,Pin_4*%
%TO.N,SOIL*%
X146740000Y-119620000D03*
%TO.P,J1,3,Pin_3*%
%TO.N,VN_0*%
X144200000Y-119620000D03*
%TO.P,J1,2,Pin_2*%
%TO.N,VP_0*%
X141660000Y-119620000D03*
D13*
%TO.P,J1,1,Pin_1*%
%TO.N,EN_0*%
X139120000Y-119620000D03*
%TD*%
D14*
%TO.P,R3,1*%
%TO.N,ESP_RELAY_K*%
X139000000Y-92370000D03*
D15*
%TO.P,R3,2*%
%TO.N,Net-(Q3-B)*%
X139000000Y-99990000D03*
%TD*%
D13*
%TO.P,RAIN0,1,Pin_1*%
%TO.N,3V*%
X164165000Y-124070000D03*
D12*
%TO.P,RAIN0,2,Pin_2*%
%TO.N,GND*%
X161625000Y-124070000D03*
%TO.P,RAIN0,3,Pin_3*%
%TO.N,RAIN*%
X159085000Y-124070000D03*
%TD*%
D14*
%TO.P,R6,1*%
%TO.N,ESP_RELAY_W0*%
X159640000Y-112680000D03*
D15*
%TO.P,R6,2*%
%TO.N,Net-(Q6-B)*%
X159640000Y-105060000D03*
%TD*%
D13*
%TO.P,J2,1,Pin_1*%
%TO.N,ESP_RELAY_K*%
X139160000Y-86620000D03*
D12*
%TO.P,J2,2,Pin_2*%
%TO.N,D_22*%
X141700000Y-86620000D03*
%TO.P,J2,3,Pin_3*%
%TO.N,TX_0*%
X144240000Y-86620000D03*
%TO.P,J2,4,Pin_4*%
%TO.N,RX_0*%
X146780000Y-86620000D03*
%TO.P,J2,5,Pin_5*%
%TO.N,D_21*%
X149320000Y-86620000D03*
%TO.P,J2,6,Pin_6*%
%TO.N,ESP_RELAY_P*%
X151860000Y-86620000D03*
%TO.P,J2,7,Pin_7*%
%TO.N,ESP_RELAY_N*%
X154400000Y-86620000D03*
%TO.P,J2,8,Pin_8*%
%TO.N,DHT*%
X156940000Y-86620000D03*
%TO.P,J2,9,Pin_9*%
%TO.N,TX2*%
X159480000Y-86620000D03*
%TO.P,J2,10,Pin_10*%
%TO.N,RX2*%
X162020000Y-86620000D03*
%TO.P,J2,11,Pin_11*%
%TO.N,D_4*%
X164560000Y-86620000D03*
%TO.P,J2,12,Pin_12*%
%TO.N,D_2*%
X167100000Y-86620000D03*
%TO.P,J2,13,Pin_13*%
%TO.N,D_15*%
X169640000Y-86620000D03*
%TO.P,J2,14,Pin_14*%
%TO.N,GND2*%
X172180000Y-86620000D03*
%TO.P,J2,15,Pin_15*%
%TO.N,3V*%
X174720000Y-86620000D03*
%TD*%
D13*
%TO.P,P,1,Pin_1*%
%TO.N,5V*%
X125690000Y-100400000D03*
D12*
%TO.P,P,2,Pin_2*%
%TO.N,GND*%
X125690000Y-102940000D03*
%TO.P,P,3,Pin_3*%
%TO.N,Net-(P0-Pin_3)*%
X125690000Y-105480000D03*
%TD*%
D13*
%TO.P,PowerIN_1,1,+*%
%TO.N,5V*%
X178600000Y-119870000D03*
D12*
%TO.P,PowerIN_1,2,-*%
%TO.N,GND*%
X181140000Y-119870000D03*
%TD*%
D14*
%TO.P,R2,1*%
%TO.N,ESP_RELAY_N*%
X154500000Y-92380000D03*
D15*
%TO.P,R2,2*%
%TO.N,Net-(Q1-B)*%
X154500000Y-100000000D03*
%TD*%
D13*
%TO.P,pH,1,Pin_1*%
%TO.N,5V*%
X121140000Y-89830000D03*
D12*
%TO.P,pH,2,Pin_2*%
%TO.N,GND*%
X121140000Y-92370000D03*
%TO.P,pH,3,Pin_3*%
%TO.N,Net-(Q4-E)*%
X121140000Y-94910000D03*
%TD*%
D16*
%TO.P,ESP32DEVKITV1,1,EN*%
%TO.N,EN_0*%
X139200000Y-115370000D03*
%TO.P,ESP32DEVKITV1,2,VP*%
%TO.N,VP_0*%
X141740000Y-115370000D03*
%TO.P,ESP32DEVKITV1,3,VN*%
%TO.N,VN_0*%
X144280000Y-115370000D03*
%TO.P,ESP32DEVKITV1,4,D34*%
%TO.N,SOIL*%
X146820000Y-115370000D03*
%TO.P,ESP32DEVKITV1,5,D35*%
%TO.N,GAS*%
X149360000Y-115370000D03*
%TO.P,ESP32DEVKITV1,6,D32*%
%TO.N,RAIN*%
X151900000Y-115370000D03*
%TO.P,ESP32DEVKITV1,7,D33*%
%TO.N,D_33*%
X154440000Y-115370000D03*
%TO.P,ESP32DEVKITV1,8,D25*%
%TO.N,ESP_RELAY_pH*%
X156980000Y-115370000D03*
%TO.P,ESP32DEVKITV1,9,D26*%
%TO.N,ESP_RELAY_W0*%
X159520000Y-115370000D03*
%TO.P,ESP32DEVKITV1,10,D27*%
%TO.N,ESP_RELAY_W1*%
X162060000Y-115370000D03*
%TO.P,ESP32DEVKITV1,11,D14*%
%TO.N,D_14*%
X164600000Y-115370000D03*
%TO.P,ESP32DEVKITV1,12,D12*%
%TO.N,D_12*%
X167140000Y-115370000D03*
%TO.P,ESP32DEVKITV1,13,D13*%
%TO.N,D_13*%
X169680000Y-115370000D03*
%TO.P,ESP32DEVKITV1,14,GND*%
%TO.N,GND*%
X172220000Y-115370000D03*
%TO.P,ESP32DEVKITV1,15,VIN*%
%TO.N,5V*%
X174760000Y-115370000D03*
%TO.P,ESP32DEVKITV1,16,3V3*%
%TO.N,3V*%
X174760000Y-90120000D03*
%TO.P,ESP32DEVKITV1,17,GND*%
%TO.N,GND2*%
X172220000Y-90120000D03*
%TO.P,ESP32DEVKITV1,18,D15*%
%TO.N,D_15*%
X169680000Y-90120000D03*
%TO.P,ESP32DEVKITV1,19,D2*%
%TO.N,D_2*%
X167140000Y-90120000D03*
%TO.P,ESP32DEVKITV1,20,D4*%
%TO.N,D_4*%
X164600000Y-90120000D03*
%TO.P,ESP32DEVKITV1,21,RX2*%
%TO.N,RX2*%
X162060000Y-90120000D03*
%TO.P,ESP32DEVKITV1,22,TX2*%
%TO.N,TX2*%
X159520000Y-90120000D03*
%TO.P,ESP32DEVKITV1,23,D5*%
%TO.N,DHT*%
X156980000Y-90120000D03*
%TO.P,ESP32DEVKITV1,24,D18*%
%TO.N,ESP_RELAY_N*%
X154440000Y-90120000D03*
%TO.P,ESP32DEVKITV1,25,D19*%
%TO.N,ESP_RELAY_P*%
X151900000Y-90120000D03*
%TO.P,ESP32DEVKITV1,26,D21*%
%TO.N,D_21*%
X149360000Y-90120000D03*
%TO.P,ESP32DEVKITV1,27,RX0*%
%TO.N,RX_0*%
X146820000Y-90120000D03*
%TO.P,ESP32DEVKITV1,28,TX0*%
%TO.N,TX_0*%
X144280000Y-90120000D03*
%TO.P,ESP32DEVKITV1,29,D22*%
%TO.N,D_22*%
X141740000Y-90120000D03*
%TO.P,ESP32DEVKITV1,30,D23*%
%TO.N,ESP_RELAY_K*%
X139200000Y-90120000D03*
%TD*%
D14*
%TO.P,R4,1*%
%TO.N,ESP_RELAY_pH*%
X156640000Y-112680000D03*
D15*
%TO.P,R4,2*%
%TO.N,Net-(Q4-B)*%
X156640000Y-105060000D03*
%TD*%
D13*
%TO.P,DHT11,1,Pin_1*%
%TO.N,3V*%
X151640000Y-82220000D03*
D12*
%TO.P,DHT11,2,Pin_2*%
%TO.N,GND2*%
X154180000Y-82220000D03*
%TO.P,DHT11,3,Pin_3*%
%TO.N,DHT*%
X156720000Y-82220000D03*
%TD*%
D13*
%TO.P,K,1,Pin_1*%
%TO.N,5V*%
X125640000Y-110830000D03*
D12*
%TO.P,K,2,Pin_2*%
%TO.N,GND*%
X125640000Y-113370000D03*
%TO.P,K,3,Pin_3*%
%TO.N,Net-(K0-Pin_3)*%
X125640000Y-115910000D03*
%TD*%
D13*
%TO.P,Water1,1,Pin_1*%
%TO.N,5V*%
X121140000Y-100330000D03*
D12*
%TO.P,Water1,2,Pin_2*%
%TO.N,GND*%
X121140000Y-102870000D03*
%TO.P,Water1,3,Pin_3*%
%TO.N,Net-(Q5-E)*%
X121140000Y-105410000D03*
%TD*%
D13*
%TO.P,N,1,Pin_1*%
%TO.N,5V*%
X125640000Y-89790000D03*
D12*
%TO.P,N,2,Pin_2*%
%TO.N,GND*%
X125640000Y-92330000D03*
%TO.P,N,3,Pin_3*%
%TO.N,Net-(N0-Pin_3)*%
X125640000Y-94870000D03*
%TD*%
D14*
%TO.P,R5,1*%
%TO.N,ESP_RELAY_W1*%
X162640000Y-112680000D03*
D15*
%TO.P,R5,2*%
%TO.N,Net-(Q5-B)*%
X162640000Y-105060000D03*
%TD*%
D13*
%TO.P,SOIL0,1,Pin_1*%
%TO.N,3V*%
X141060000Y-124045000D03*
D12*
%TO.P,SOIL0,2,Pin_2*%
%TO.N,GND*%
X143600000Y-124045000D03*
%TO.P,SOIL0,3,Pin_3*%
%TO.N,SOIL*%
X146140000Y-124045000D03*
%TD*%
D13*
%TO.P,GAS0,1,Pin_1*%
%TO.N,3V*%
X155165000Y-124070000D03*
D12*
%TO.P,GAS0,2,Pin_2*%
%TO.N,GND*%
X152625000Y-124070000D03*
%TO.P,GAS0,3,Pin_3*%
%TO.N,GAS*%
X150085000Y-124070000D03*
%TD*%
D14*
%TO.P,R1,1*%
%TO.N,ESP_RELAY_P*%
X152000000Y-92380000D03*
D15*
%TO.P,R1,2*%
%TO.N,Net-(Q2-B)*%
X152000000Y-100000000D03*
%TD*%
D13*
%TO.P,Water0,1,Pin_1*%
%TO.N,5V*%
X121140000Y-110830000D03*
D12*
%TO.P,Water0,2,Pin_2*%
%TO.N,GND*%
X121140000Y-113370000D03*
%TO.P,Water0,3,Pin_3*%
%TO.N,Net-(Q6-E)*%
X121140000Y-115910000D03*
%TD*%
D13*
%TO.P,J3,1,Pin_1*%
%TO.N,5V*%
X167940000Y-82245000D03*
D12*
%TO.P,J3,2,Pin_2*%
%TO.N,GND2*%
X165400000Y-82245000D03*
%TO.P,J3,3,Pin_3*%
%TO.N,RX2*%
X162860000Y-82245000D03*
%TO.P,J3,4,Pin_4*%
%TO.N,TX2*%
X160320000Y-82245000D03*
%TD*%
D17*
%TO.P,Q4,1,C*%
%TO.N,5V*%
X152280000Y-111640000D03*
D18*
%TO.P,Q4,2,B*%
%TO.N,Net-(Q4-B)*%
X152280000Y-110370000D03*
%TO.P,Q4,3,E*%
%TO.N,Net-(Q4-E)*%
X152280000Y-109100000D03*
%TD*%
D17*
%TO.P,Q2,1,C*%
%TO.N,5V*%
X147640000Y-97640000D03*
D18*
%TO.P,Q2,2,B*%
%TO.N,Net-(Q2-B)*%
X147640000Y-96370000D03*
%TO.P,Q2,3,E*%
%TO.N,Net-(P0-Pin_3)*%
X147640000Y-95100000D03*
%TD*%
D17*
%TO.P,Q3,1,C*%
%TO.N,5V*%
X142780000Y-97640000D03*
D18*
%TO.P,Q3,2,B*%
%TO.N,Net-(Q3-B)*%
X142780000Y-96370000D03*
%TO.P,Q3,3,E*%
%TO.N,Net-(K0-Pin_3)*%
X142780000Y-95100000D03*
%TD*%
D17*
%TO.P,Q1,1,C*%
%TO.N,5V*%
X158500000Y-97640000D03*
D18*
%TO.P,Q1,2,B*%
%TO.N,Net-(Q1-B)*%
X158500000Y-96370000D03*
%TO.P,Q1,3,E*%
%TO.N,Net-(N0-Pin_3)*%
X158500000Y-95100000D03*
%TD*%
D17*
%TO.P,Q5,1,C*%
%TO.N,5V*%
X172230000Y-111910000D03*
D18*
%TO.P,Q5,2,B*%
%TO.N,Net-(Q5-B)*%
X172230000Y-110640000D03*
%TO.P,Q5,3,E*%
%TO.N,Net-(Q5-E)*%
X172230000Y-109370000D03*
%TD*%
D17*
%TO.P,Q6,1,C*%
%TO.N,5V*%
X166370000Y-111870000D03*
D18*
%TO.P,Q6,2,B*%
%TO.N,Net-(Q6-B)*%
X166370000Y-110600000D03*
%TO.P,Q6,3,E*%
%TO.N,Net-(Q6-E)*%
X166370000Y-109330000D03*
%TD*%
D19*
%TO.N,Net-(Q5-E)*%
X137640000Y-106870000D03*
%TD*%
D20*
%TO.N,3V*%
X163140000Y-125870000D02*
X156140000Y-125870000D01*
X173940000Y-124070000D02*
X164165000Y-124070000D01*
X142885000Y-125870000D02*
X141060000Y-124045000D01*
X155165000Y-124070000D02*
X155165000Y-124845000D01*
X155165000Y-124895000D02*
X156140000Y-125870000D01*
X155140000Y-125870000D02*
X154140000Y-125870000D01*
X154140000Y-125870000D02*
X142885000Y-125870000D01*
X155140000Y-125870000D02*
X155165000Y-125845000D01*
X176640000Y-121370000D02*
X173940000Y-124070000D01*
X164165000Y-124070000D02*
X164165000Y-124845000D01*
X164165000Y-124845000D02*
X163140000Y-125870000D01*
X176640000Y-92000000D02*
X176640000Y-121370000D01*
X174760000Y-90120000D02*
X176640000Y-92000000D01*
X155165000Y-124070000D02*
X155165000Y-124895000D01*
X156140000Y-125870000D02*
X155140000Y-125870000D01*
X155165000Y-125845000D02*
X155165000Y-124070000D01*
X155165000Y-124845000D02*
X154140000Y-125870000D01*
%TO.N,VN_0*%
X144280000Y-115370000D02*
X144140000Y-115370000D01*
%TO.N,5V*%
X120555000Y-110830000D02*
X120077500Y-111307500D01*
X121140000Y-100330000D02*
X120475000Y-100330000D01*
X119015000Y-101870000D02*
X119015000Y-107870000D01*
X174515000Y-82245000D02*
X178600000Y-86330000D01*
X121140000Y-100330000D02*
X120555000Y-100330000D01*
X119390000Y-110620000D02*
X119015000Y-110995000D01*
X119265000Y-110120000D02*
X119015000Y-109870000D01*
X178600000Y-86330000D02*
X178600000Y-119870000D01*
X119015000Y-100370000D02*
X119015000Y-100870000D01*
X153780000Y-111640000D02*
X155050000Y-110370000D01*
X119015000Y-112370000D02*
X119015000Y-117745000D01*
X119015000Y-111870000D02*
X119015000Y-112370000D01*
X119015000Y-111370000D02*
X119015000Y-111870000D01*
X163140000Y-110370000D02*
X164640000Y-111870000D01*
X120015000Y-99870000D02*
X119015000Y-99870000D01*
X119910000Y-109600000D02*
X120160000Y-109850000D01*
X158500000Y-97640000D02*
X145640000Y-97640000D01*
X120600000Y-110830000D02*
X119890000Y-110120000D01*
X119015000Y-99870000D02*
X119015000Y-100370000D01*
X119015000Y-98870000D02*
X119015000Y-99870000D01*
X142780000Y-97640000D02*
X145640000Y-97640000D01*
X119890000Y-111120000D02*
X119390000Y-110620000D01*
X119015000Y-107870000D02*
X119015000Y-108705000D01*
X152280000Y-111640000D02*
X153780000Y-111640000D01*
X120160000Y-109850000D02*
X119890000Y-110120000D01*
X119015000Y-110995000D02*
X119015000Y-111370000D01*
X145640000Y-97640000D02*
X147640000Y-97640000D01*
X174140000Y-121870000D02*
X174680000Y-121330000D01*
X174680000Y-121330000D02*
X174680000Y-119620000D01*
X121140000Y-89830000D02*
X120180000Y-89830000D01*
X120077500Y-111307500D02*
X119015000Y-112370000D01*
X119015000Y-90995000D02*
X119015000Y-98870000D01*
X119015000Y-111870000D02*
X119140000Y-111870000D01*
X119140000Y-111870000D02*
X119890000Y-111120000D01*
X158640000Y-97780000D02*
X158640000Y-97870000D01*
X119015000Y-100870000D02*
X119015000Y-101870000D01*
X174760000Y-103990000D02*
X168410000Y-97640000D01*
X121140000Y-110830000D02*
X120600000Y-110830000D01*
X119265000Y-110120000D02*
X119390000Y-110120000D01*
X121140000Y-110830000D02*
X120555000Y-110830000D01*
X119327500Y-101557500D02*
X119015000Y-101245000D01*
X119827500Y-101057500D02*
X119827500Y-99682500D01*
X119015000Y-101245000D02*
X119015000Y-100870000D01*
X164640000Y-111870000D02*
X166370000Y-111870000D01*
X120475000Y-100330000D02*
X120327500Y-100182500D01*
X123140000Y-121870000D02*
X174140000Y-121870000D01*
X120327500Y-100182500D02*
X120015000Y-99870000D01*
X119327500Y-101557500D02*
X119015000Y-101870000D01*
X120160000Y-109850000D02*
X121140000Y-110830000D01*
X174760000Y-115370000D02*
X174760000Y-103990000D01*
X119015000Y-108705000D02*
X119910000Y-109600000D01*
X120555000Y-100330000D02*
X119827500Y-101057500D01*
X119015000Y-109870000D02*
X119015000Y-111370000D01*
X168410000Y-97640000D02*
X158500000Y-97640000D01*
X119827500Y-101057500D02*
X119327500Y-101557500D01*
X119890000Y-110120000D02*
X119390000Y-110620000D01*
X121140000Y-100330000D02*
X119055000Y-100330000D01*
X119015000Y-107870000D02*
X119015000Y-109870000D01*
X119202500Y-101057500D02*
X119015000Y-100870000D01*
X120327500Y-100182500D02*
X119827500Y-99682500D01*
X119827500Y-99682500D02*
X119015000Y-98870000D01*
X119827500Y-101057500D02*
X119202500Y-101057500D01*
X119015000Y-117745000D02*
X123140000Y-121870000D01*
X120180000Y-89830000D02*
X119015000Y-90995000D01*
X119890000Y-110120000D02*
X119265000Y-110120000D01*
X120077500Y-111307500D02*
X119890000Y-111120000D01*
X119390000Y-110120000D02*
X119910000Y-109600000D01*
X167940000Y-82245000D02*
X174515000Y-82245000D01*
X155050000Y-110370000D02*
X163140000Y-110370000D01*
X119055000Y-100330000D02*
X119015000Y-100370000D01*
%TO.N,Net-(K0-Pin_3)*%
X126100000Y-115910000D02*
X125640000Y-115910000D01*
X140660000Y-95100000D02*
X132140000Y-103620000D01*
X132140000Y-109870000D02*
X126100000Y-115910000D01*
X142780000Y-95100000D02*
X140660000Y-95100000D01*
X132140000Y-103620000D02*
X132140000Y-109870000D01*
%TO.N,Net-(P0-Pin_3)*%
X128530000Y-105480000D02*
X125690000Y-105480000D01*
X147640000Y-95100000D02*
X147640000Y-94370000D01*
X146140000Y-92870000D02*
X141140000Y-92870000D01*
X141140000Y-92870000D02*
X128530000Y-105480000D01*
X147640000Y-94370000D02*
X146140000Y-92870000D01*
%TO.N,Net-(Q2-B)*%
X152000000Y-100000000D02*
X151770000Y-100000000D01*
X151770000Y-100000000D02*
X151640000Y-99870000D01*
%TO.N,Net-(Q3-B)*%
X139000000Y-98650000D02*
X139000000Y-99990000D01*
X141280000Y-96370000D02*
X139000000Y-98650000D01*
X142780000Y-96370000D02*
X141280000Y-96370000D01*
%TO.N,Net-(Q4-B)*%
X152280000Y-110370000D02*
X152965317Y-110370000D01*
X152965317Y-110370000D02*
X156640000Y-106695317D01*
X156640000Y-106695317D02*
X156640000Y-105060000D01*
%TO.N,Net-(Q5-B)*%
X165330000Y-105060000D02*
X162640000Y-105060000D01*
X170910000Y-110640000D02*
X165330000Y-105060000D01*
X172230000Y-110640000D02*
X170910000Y-110640000D01*
%TO.N,Net-(Q5-E)*%
X165730000Y-102870000D02*
X172230000Y-109370000D01*
X137640000Y-106870000D02*
X141640000Y-102870000D01*
X141640000Y-102870000D02*
X165730000Y-102870000D01*
%TO.N,Net-(Q6-B)*%
X165180000Y-110600000D02*
X159640000Y-105060000D01*
X166370000Y-110600000D02*
X165180000Y-110600000D01*
%TO.N,GND2*%
X172220000Y-90120000D02*
X172220000Y-90290000D01*
X172220000Y-90290000D02*
X172140000Y-90370000D01*
%TD*%
M02*
