%TF.GenerationSoftware,KiCad,Pcbnew,8.0.0*%
%TF.CreationDate,2025-01-05T23:08:37+05:30*%
%TF.ProjectId,sunday_pcb,73756e64-6179-45f7-9063-622e6b696361,rev?*%
%TF.SameCoordinates,Original*%
%TF.FileFunction,Soldermask,Bot*%
%TF.FilePolarity,Negative*%
%FSLAX46Y46*%
G04 Gerber Fmt 4.6, Leading zero omitted, Abs format (unit mm)*
G04 Created by KiCad (PCBNEW 8.0.0) date 2025-01-05 23:08:37*
%MOMM*%
%LPD*%
G01*
G04 APERTURE LIST*
%ADD10O,1.700000X1.700000*%
%ADD11R,1.700000X1.700000*%
%ADD12C,1.400000*%
%ADD13O,1.400000X1.400000*%
%ADD14C,1.700000*%
%ADD15R,1.500000X1.050000*%
%ADD16O,1.500000X1.050000*%
G04 APERTURE END LIST*
D10*
%TO.C,J1*%
X174680000Y-119620000D03*
X172140000Y-119620000D03*
X169600000Y-119620000D03*
X167060000Y-119620000D03*
X164520000Y-119620000D03*
X161980000Y-119620000D03*
X159440000Y-119620000D03*
X156900000Y-119620000D03*
X154360000Y-119620000D03*
X151820000Y-119620000D03*
X149280000Y-119620000D03*
X146740000Y-119620000D03*
X144200000Y-119620000D03*
X141660000Y-119620000D03*
D11*
X139120000Y-119620000D03*
%TD*%
D12*
%TO.C,R3*%
X139000000Y-92370000D03*
D13*
X139000000Y-99990000D03*
%TD*%
D11*
%TO.C,RAIN0*%
X164165000Y-124070000D03*
D10*
X161625000Y-124070000D03*
X159085000Y-124070000D03*
%TD*%
D12*
%TO.C,R6*%
X159640000Y-112680000D03*
D13*
X159640000Y-105060000D03*
%TD*%
D11*
%TO.C,J2*%
X139160000Y-86620000D03*
D10*
X141700000Y-86620000D03*
X144240000Y-86620000D03*
X146780000Y-86620000D03*
X149320000Y-86620000D03*
X151860000Y-86620000D03*
X154400000Y-86620000D03*
X156940000Y-86620000D03*
X159480000Y-86620000D03*
X162020000Y-86620000D03*
X164560000Y-86620000D03*
X167100000Y-86620000D03*
X169640000Y-86620000D03*
X172180000Y-86620000D03*
X174720000Y-86620000D03*
%TD*%
D11*
%TO.C,P*%
X125690000Y-100400000D03*
D10*
X125690000Y-102940000D03*
X125690000Y-105480000D03*
%TD*%
D11*
%TO.C,PowerIN_1*%
X178600000Y-119870000D03*
D10*
X181140000Y-119870000D03*
%TD*%
D12*
%TO.C,R2*%
X154500000Y-92380000D03*
D13*
X154500000Y-100000000D03*
%TD*%
D11*
%TO.C,pH*%
X121140000Y-89830000D03*
D10*
X121140000Y-92370000D03*
X121140000Y-94910000D03*
%TD*%
D14*
%TO.C,ESP32DEVKITV1*%
X139200000Y-115370000D03*
X141740000Y-115370000D03*
X144280000Y-115370000D03*
X146820000Y-115370000D03*
X149360000Y-115370000D03*
X151900000Y-115370000D03*
X154440000Y-115370000D03*
X156980000Y-115370000D03*
X159520000Y-115370000D03*
X162060000Y-115370000D03*
X164600000Y-115370000D03*
X167140000Y-115370000D03*
X169680000Y-115370000D03*
X172220000Y-115370000D03*
X174760000Y-115370000D03*
X174760000Y-90120000D03*
X172220000Y-90120000D03*
X169680000Y-90120000D03*
X167140000Y-90120000D03*
X164600000Y-90120000D03*
X162060000Y-90120000D03*
X159520000Y-90120000D03*
X156980000Y-90120000D03*
X154440000Y-90120000D03*
X151900000Y-90120000D03*
X149360000Y-90120000D03*
X146820000Y-90120000D03*
X144280000Y-90120000D03*
X141740000Y-90120000D03*
X139200000Y-90120000D03*
%TD*%
D12*
%TO.C,R4*%
X156640000Y-112680000D03*
D13*
X156640000Y-105060000D03*
%TD*%
D11*
%TO.C,DHT11*%
X151640000Y-82220000D03*
D10*
X154180000Y-82220000D03*
X156720000Y-82220000D03*
%TD*%
D11*
%TO.C,K*%
X125640000Y-110830000D03*
D10*
X125640000Y-113370000D03*
X125640000Y-115910000D03*
%TD*%
D11*
%TO.C,Water1*%
X121140000Y-100330000D03*
D10*
X121140000Y-102870000D03*
X121140000Y-105410000D03*
%TD*%
D11*
%TO.C,N*%
X125640000Y-89790000D03*
D10*
X125640000Y-92330000D03*
X125640000Y-94870000D03*
%TD*%
D12*
%TO.C,R5*%
X162640000Y-112680000D03*
D13*
X162640000Y-105060000D03*
%TD*%
D11*
%TO.C,SOIL0*%
X141060000Y-124045000D03*
D10*
X143600000Y-124045000D03*
X146140000Y-124045000D03*
%TD*%
D11*
%TO.C,GAS0*%
X155165000Y-124070000D03*
D10*
X152625000Y-124070000D03*
X150085000Y-124070000D03*
%TD*%
D12*
%TO.C,R1*%
X152000000Y-92380000D03*
D13*
X152000000Y-100000000D03*
%TD*%
D11*
%TO.C,Water0*%
X121140000Y-110830000D03*
D10*
X121140000Y-113370000D03*
X121140000Y-115910000D03*
%TD*%
D11*
%TO.C,J3*%
X167940000Y-82245000D03*
D10*
X165400000Y-82245000D03*
X162860000Y-82245000D03*
X160320000Y-82245000D03*
%TD*%
D15*
%TO.C,Q4*%
X152280000Y-111640000D03*
D16*
X152280000Y-110370000D03*
X152280000Y-109100000D03*
%TD*%
D15*
%TO.C,Q2*%
X147640000Y-97640000D03*
D16*
X147640000Y-96370000D03*
X147640000Y-95100000D03*
%TD*%
D15*
%TO.C,Q3*%
X142780000Y-97640000D03*
D16*
X142780000Y-96370000D03*
X142780000Y-95100000D03*
%TD*%
D15*
%TO.C,Q1*%
X158500000Y-97640000D03*
D16*
X158500000Y-96370000D03*
X158500000Y-95100000D03*
%TD*%
D15*
%TO.C,Q5*%
X172230000Y-111910000D03*
D16*
X172230000Y-110640000D03*
X172230000Y-109370000D03*
%TD*%
D15*
%TO.C,Q6*%
X166370000Y-111870000D03*
D16*
X166370000Y-110600000D03*
X166370000Y-109330000D03*
%TD*%
M02*
